<svg viewBox="0 0 151.3 116.26" xmlns="http://www.w3.org/2000/svg"><path d="m135.94 103.51c-1.64.57-7.35 1.82-7.17-1.84-.51-4.87 5.65.44 7.17 1.84z" fill="#fff"/><path d="m105.86 100.41a0 0 0 0 1 0 0z"/><path d="m124.6 102.54-.12.09a.36.36 0 0 1 .12-.09z"/><path d="m130.29 98.66c-.44 0-.1.32 0 0zm6.29-11.49.22.2a.34.34 0 0 0 -.22-.2z"/><path d="m146.89 99.28c-1.25 1.71-3.57 2-6 1.18 3.2-4.94-.32-10-4.29-13.29-1.72-1.5-1.8-1.69-2.68.59a23.29 23.29 0 0 1 -4.59 11 13.37 13.37 0 0 1 -4.67 3.71 6.71 6.71 0 0 1 -2 .67 5.26 5.26 0 0 1 -1.68 0s0 0 0 0a3.41 3.41 0 0 1 -.53-.13c6.55-3.75 6.83-18.85-3.15-13.71-3.33 3.32-5.34 10.89-.75 14a18.65 18.65 0 0 1 -7.28-1.17 15.42 15.42 0 0 1 -2.85-1.41c5.29-2.65 7-15-.59-15-5.12.87-7.55 11.46-3.53 14.69-3.83.46-7-3-6.45-2.26 2.84 3.78 5.36 4.76 8.49 3.76a20.67 20.67 0 0 0 14.11 2.27c3.88 1 8.18-.42 11.21-2.83 1.78 3.64 7.13 3.46 9.78.83 3.57 1.43 6.75-.32 8.19-3.75.53-1.18-.53.57-.74.85zm-41.03 1.14a0 0 0 0 1 0 0zm.19-2-.13.17a5.08 5.08 0 0 1 -1.12.92c-3.22-3.2-1.11-8.66.83-12l.05-.06c.1-.1.16-.18.26-.27a5 5 0 0 1 1.19 1.55 9.75 9.75 0 0 1 -1.08 9.68zm14.11-8.92c.07 0 .08 0-.13 0zm-.34 0h.08-.23zm-2.82 13.78h-.17.19zm1.59-1.17a5.4 5.4 0 0 1 -1.23-1.59c-1.32-3.31 0-7.37 1.84-10.22a6 6 0 0 1 .69-.65l.12-.07c4.44 2.91 1.85 9.68-1.43 12.53zm11.71-3.45c-.1.32-.44 0 0 0zm4.75 3.57a6.38 6.38 0 0 1 -4-2.16c.36-.38.71-.76 1-1.17 2.35.32 4.08 2 6.18 2.91a5.41 5.41 0 0 1 -3.23.42zm2-3.5a18.42 18.42 0 0 0 -3.72-1.86 23.34 23.34 0 0 0 2.9-7.14c3.05 2.87 5.77 7.13 3.69 10.38a15.76 15.76 0 0 1 -2.85-1.38z"/><path d="m105.86 100.41a0 0 0 0 1 0 0z"/><path d="m107.62 99.78a9.16 9.16 0 0 1 -1.19 1h-.05a9.52 9.52 0 0 0 1.24-1z"/><path d="m150.82 103.36c-16.62 12.64-41.63 11.64-59.71 2.19a.86.86 0 0 1 -.41-1c2.77-8.47 2.59-16.29 4.42-25a.76.76 0 0 1 .42-.58c17.95-6.57 25.55-50.32 12.19-40.17-9.66 7.33-12.6 26.32-15.63 38.86-.08.34-9.47.52-9.21-12.56a1 1 0 0 1 .35-.74c17.73-15.53 19.84-56 5.6-39.91-7.63 8.6-10 28.82-9.48 40.21a.85.85 0 0 1 -.4.76c-.34.22-.7.41-1 .61l-1.19.56a.19.19 0 0 1 -.09 0 9.67 9.67 0 0 1 -1.38.45c.1 0-.12 0-.13 0l-.61.11h-.18a8.47 8.47 0 0 1 -1.67 0 8.89 8.89 0 0 1 -1-.18c-1.15-.23-1.35-.61-.34-1.5 4.63-3.99 7.53-15.67-.37-15.55a1 1 0 0 0 -.24 0c-5.6 1.37-8.61 9.64-6.39 14.86.52 1.21-.1 1.51-1.05 1.15-2.4-.91-4.06-2.68-3.7-2.07 2.34 4 5 4.71 7.43 4.06a.86.86 0 0 1 .55 0c3.48 1.35 7.4.57 10.81-.84a.86.86 0 0 1 1.18.71c.58 3.71 4 11.74 10.51 11.74 1.6 0 1.69.42 1.58 1-1.4 7.28-1.66 14.76-3.57 21.92a.86.86 0 0 1 -1.33.48 50.72 50.72 0 0 0 -6.18-4.08 1 1 0 0 0 -.22-.08c-13.47-2.92-6.92 32.62 8.11 9.64.25-.39.85.36 1.53.68 15.42 7.43 31.88 9 48.43 3.28 13.55-4.58 13.55-10.74 12.37-9.01zm-42.54-62.61a1 1 0 0 1 1.48.21c5.4 8.24-5.38 30.52-14.31 36.25-1.6 1.03 7.55-33.12 12.83-36.46zm-40.35 23.53c-1.89-3.59-.41-8.58 1.82-12a.87.87 0 0 1 1.41-.05c2.23 2.88 1.47 7.61-.35 10.55a10.59 10.59 0 0 1 -1.57 1.71.84.84 0 0 1 -1.31-.21zm14.9-11.36c.87-9.87 2.81-21.43 9.53-29.18a1 1 0 0 1 1.54.26c4.28 7.39-4.4 28.63-9.69 36.77-1.38 2.13-1.67 2.87-1.56-.52.08-2.46.04-4.91.18-7.33zm1.29 57.08c-6.24 7-11-.45-9.57-7.28a.89.89 0 0 1 .54-.62c3.61-1.49 6.75 2.27 9.92 4.42.94.63.54 1.95-.23 2.79q-.32.37-.66.69z"/><path d="m24.78 6.82h-.11a.22.22 0 0 1 .11 0z"/><path d="m25 6.92a.82.82 0 0 0 -.26-.1.42.42 0 0 1 .26.1z"/><path d="m61.45 37.61c3-8.61 8-16.88 7.46-26.29v-.06c.45-9.48-6.44-16-14.34-6.95a53.92 53.92 0 0 0 -9 16.22c-2.52 6.72-1.66 7.62-1.66-.4 0-7.4.75-16.31-7.23-10.78l-.11.08c-3.69 3.23-6.09 7.65-8.35 12s-1.72.45-1.62-.49c.5-4.87 1.34-10.52-1.52-14 0-.05 0 0 0-.05-2.38-1.33-5.52 1.37-6 1.81-4 4.18-5.24 10.38-9.18 14.61a.88.88 0 0 1 -1 .18c-5-2.39-3.86-10.63 0-12.57l.19-.07a6.74 6.74 0 0 1 .75-.17c-15.75 1.87-6.52 22.78 4.91 10.5l.09-.11c2.38-3.26 3.83-7.09 6-10.5a.87.87 0 0 1 1.58.3c2.12 10.84-1.43 22.11-3.67 32.7-2 7.92-3.59 16.18-5.45 23.89-.2.83.18 1.18 1 1 3-.57 2.65-.16 3.06-2.73a.41.41 0 0 0 0-.11c3.63-19.1 8.62-38.26 20.27-54.17a1.1 1.1 0 0 1 1.71-.11c4 4.89-5.21 46.78-7.28 56-.17.76.16 1.23 1.06 1s2.26-.61 2.57-.72c.16 0 .26-.92.28-1 5.72-21.37 8.95-45.58 22.87-63.38a2.3 2.3 0 0 1 3-.6c4.91 3 3.12 15.7 1.85 20.2-3.79 11.71-26.16 57.81-.2 55.05a.07.07 0 0 0 .06 0 .08.08 0 0 0 .06 0c1.11-.25 2.23-.56 3.32-.87l-1.71.43 1.48-.45c-20.31 1.54-8.7-28.74-5.25-39.39zm-52.45-26.73a16.1 16.1 0 0 1 -2.84.82c-.72.07 2-.7 2.84-.82z"/><path d="m9 10.88a16.1 16.1 0 0 1 -2.84.82c-.72.07 2-.7 2.84-.82z"/><path d="m74.55 67.22h-.15a.36.36 0 0 1 .15 0z"/><path d="m75.11 67.12c.17-.05.18-.03 0 0z"/><path d="m76.69 66.6a.19.19 0 0 1 -.09 0z"/><path d="m76.28 101.63a3.39 3.39 0 0 0 -1.78 1.37c0-.23.11-.46.15-.68a11.94 11.94 0 0 1 1.63-.69z"/><path d="m75.25 102.15a1.85 1.85 0 0 0 -.8 1.27 10 10 0 0 1 .2-1.09 2.08 2.08 0 0 1 .6-.18z"/></svg>