<svg height="4.4in" viewBox="0 0 284.2 315.7" width="3.9in" xmlns="http://www.w3.org/2000/svg"><path d="m11.4 87v36.7h-6.4v-54.3h6.4l11.8 37.4 11.9-37.4h6.3v54.3h-6.4v-36.9l-9.5 29.8h-4.6z"/><path d="m54.8 75.7v17.7h13.3v5.7h-13.3v18.3h18.1v6.3h-24.5v-54.3h24.5v6.3z"/><path d="m204.5 177v17.6h13.2v5.8h-13.2v18.2h18.1v6.3h-24.5v-54.2h24.5v6.3z"/><path d="m232.9 177v17.6h13.3v5.8h-13.3v18.2h18.1v6.3h-24.5v-54.2h24.5v6.3z"/><path d="m281.2 185h-6.4c0-6.1-3.3-9-7.9-9s-7.5 2.7-7.5 7.1c0 11.7 22.2 11.8 22.2 28.3 0 9-5.5 14.2-14.5 14.2s-14.8-5.4-14.8-15.4h6.4c0 6.5 3.5 9.3 8.5 9.3s8-2.6 8-7.8c0-12.6-22.2-12.8-22.2-28.6 0-7.7 4.9-13.2 13.9-13.2s14.3 5.5 14.3 15.1z"/><path d="m96.6 142.5c10.7 1.4 21 4 30.2 9.8 7.4 4.7 13.8 10.9 20.7 16.3 4.1 3.2 8.1 6.5 13.3 7.7a28.4 28.4 0 0 0 16.8-1.5c10.2-4.1 18.6-12.3 25.2-20.9 13.6-17.8 23-40.3 23.1-62.9 0-4.9-.5-10.5-4-14.3s-9.1-4.6-13.8-2.8c-9.8 3.6-15.8 16.4-20.2 25-11.5 22.5-20.4 46.2-29.6 69.7s-18.8 48.6-32.7 70.5c-6.6 10.4-15.7 24.8-28.9 27.1-10.3 1.8-17.2-6.2-19.6-15.2a37.5 37.5 0 0 1 -.7-14.9 20.5 20.5 0 0 1 1.5-6.6c1.2-2.8 4-5 6.5-6.8 9.2-6.9 20.9-9.3 32.2-9.9 24.3-1.4 49.9 4.9 67.9 22 20.6 19.6 27.9 50.1 22.9 77.6-.1.6 2.5-2.9 2.7-3.2 1.1-1.9 2.8-4.2 3.2-6.4 4.4-24.2-.5-51-16-70.5-13.8-17.5-34.9-27-56.7-29.3s-45.8.2-59.2 18.3c-9.9 13.2-17.8 35.8-5 50.1 7.7 8.5 19.1 5 26.9-1.4s15.7-18 21.9-27.8c13.4-21.4 23.7-44.5 33.1-68s18.5-48.6 29.6-72c2.9-6.2 5.7-13.1 11.8-16.9 4.4-2.7 10.2-3.2 14.5-.1 9.9 6.9 5.5 26.2 3.2 35.9-3.4 14.3-10.1 26.4-21.6 35.8s-24.7 14.2-36.7 5.8c-8.5-5.8-15.8-13.2-24.3-19.1s-20.7-9.8-32.3-11.3c-2.2-.3-5.3 10.3-5.9 10.2z"/><path d="m155.6 161.1c-14.8-15.9-32.3-26.4-54.2-28.7-1.6-.2-4.8 7.2-5.3 8.4-7.9 16.7-17 36.1-31.5 48-6 4.9-14 8.5-21.5 4.8-4.9-2.3-8-7.2-9.6-12.2a37.5 37.5 0 0 1 -.8-19.1c1.5-7.3 7.2-11.4 13.7-14.7 14.7-7.4 33.3-7.4 49.2-5.1 1.5.3 4.8-7.2 5.3-8.4 6.1-13.2 11.6-26.6 16.9-40.1.9-2.2-1.6 1.2-1.7 1.4a37.6 37.6 0 0 0 -3.9 7.1c-5.1 12.9-10.3 25.8-16.1 38.3l5.3-8.4c-15.9-2.3-34.1-2.3-48.9 4.9-12.1 5.9-21 18.4-24.8 31.1-3.2 10.5-2.7 25.4 6.1 33.1 13 11.4 28.7-4.5 36.3-14.5 12.4-16.3 22.2-34.5 30.8-52.9l-5.3 8.4c21.8 2.4 39.3 12.9 54.2 28.7-.2-.2 7.1-8.7 5.8-10.1z"/><path d="m56.8 35c5.2-7.3 15.1-2.3 19.1 3.3 5.4 7.7 6.3 17.5 7.9 26.4 3 17.1 11.4 32.1 28.3 38.6 1.3.5 6.1-10 5.9-10.1a43.2 43.2 0 0 1 -19.8-15.5c-6-8.7-7.7-18.6-9.5-28.7-1.4-8.6-3.4-19.4-10.8-25s-13.4-2.6-17.6 3.4a27.7 27.7 0 0 0 -4.2 7.2c-.5 1.6-.6 2.4.7.4z"/><path d="m175.8 30.9c-.5 13.5-3.3 28.6-10.8 40.1s-18.5 21.7-31.2 24.1a26.9 26.9 0 0 1 -9.8-.2c-1.1-.3-4.4-.5-5.2-1.1h-.9l.6-1.8c.3-1.1 1-2.4 1.4-3.5l9-23c5.9-14.7 11.4-30.7 19.7-44.4 3.9-6.2 11.4-11.4 18.9-8.6s8.5 11.3 8.3 18.3c0 .8 2.5-2.9 2.7-3.2s3.2-4.4 3.3-6.4c.1-9.8-3.5-22.3-16.1-19.3-10.2 2.5-16.3 15.1-20.8 23.6-13 24.7-22 51.1-32.7 76.9a1.1 1.1 0 0 0 -.1.8c11.2 3.8 20.7 1.9 30.3-4.7a76.5 76.5 0 0 0 19.2-20.1c11.7-17 19.4-36.5 20.2-57.2 0-.8-2.5 2.9-2.7 3.2s-3.2 4.5-3.3 6.5z"/><path d="m95.8 142.5c10.7 1.4 21 4 30.2 9.8 7.4 4.7 13.8 10.9 20.7 16.3 4.1 3.2 8.1 6.5 13.3 7.7a28.4 28.4 0 0 0 16.8-1.5c10.2-4.1 18.6-12.3 25.2-20.9 13.6-17.8 23-40.3 23.1-62.9 0-4.9-.5-10.5-3.9-14.3s-9.2-4.6-13.9-2.8c-9.8 3.6-15.7 16.4-20.2 25-11.5 22.5-20.4 46.2-29.6 69.7s-18.7 48.6-32.7 70.5c-6.6 10.4-15.7 24.8-28.9 27.1-10.2 1.8-17.2-6.2-19.6-15.2a37.5 37.5 0 0 1 -.7-14.9 23.6 23.6 0 0 1 1.5-6.6c1.2-2.8 4-5 6.5-6.8 9.2-6.9 20.9-9.3 32.2-9.9 24.3-1.4 49.9 4.9 67.9 22 20.6 19.6 27.9 50.1 22.9 77.6-.1.6 2.5-2.9 2.7-3.2 1.2-1.9 2.8-4.2 3.2-6.4 4.4-24.2-.5-51-16-70.5-13.8-17.5-34.9-27-56.7-29.3s-45.8.2-59.2 18.3c-9.9 13.2-17.7 35.8-4.9 50.1 7.6 8.5 19 5 26.8-1.4s15.7-18 21.9-27.8c13.4-21.4 23.8-44.5 33.2-68s18.4-48.6 29.5-72c3-6.2 5.7-13.1 11.8-16.9 4.4-2.7 10.2-3.2 14.6-.1 9.8 6.9 5.4 26.2 3.1 35.9-3.4 14.3-10.1 26.4-21.6 35.8s-24.6 14.2-36.7 5.8c-8.5-5.8-15.8-13.2-24.2-19.1s-20.8-9.8-32.4-11.3c-2.2-.3-5.3 10.3-5.9 10.2z"/><path d="m154.8 161.1c-14.8-15.9-32.3-26.4-54.2-28.7-1.6-.2-4.7 7.2-5.3 8.4-7.8 16.7-17 36.1-31.5 48-6 4.9-14 8.5-21.5 4.8-4.9-2.3-8-7.2-9.6-12.2a37.5 37.5 0 0 1 -.8-19.1c1.5-7.3 7.2-11.4 13.7-14.7 14.7-7.4 33.3-7.4 49.2-5.1 1.5.3 4.8-7.2 5.3-8.4 6.1-13.2 11.6-26.6 16.9-40.1.9-2.2-1.6 1.2-1.7 1.4a37.6 37.6 0 0 0 -3.9 7.1c-5 12.9-10.3 25.8-16.1 38.3l5.3-8.4c-15.9-2.3-34.1-2.3-48.9 4.9-12.1 5.9-21 18.4-24.8 31.1-3.2 10.5-2.7 25.4 6.1 33.1 13.1 11.4 28.7-4.5 36.3-14.5 12.4-16.3 22.2-34.5 30.8-52.9l-5.3 8.4c21.8 2.4 39.3 12.9 54.2 28.7-.2-.2 7.2-8.7 5.8-10.1z"/><path d="m56 35c5.2-7.3 15.1-2.3 19.1 3.3 5.4 7.7 6.4 17.5 7.9 26.4 3 17.1 11.4 32.1 28.3 38.6 1.3.5 6.2-10 5.9-10.1a43.2 43.2 0 0 1 -19.8-15.5c-6-8.7-7.7-18.6-9.4-28.7-1.5-8.6-3.5-19.4-10.9-25s-13.4-2.6-17.6 3.4c-1.5 2.2-3.4 4.7-4.2 7.2s-.6 2.4.7.4z"/><path d="m175 30.9c-.5 13.5-3.3 28.6-10.8 40.1s-18.5 21.7-31.2 24.1a27 27 0 0 1 -9.8-.2c-1.1-.3-4.4-.5-5.2-1.1h-.9l.7-1.8a24.8 24.8 0 0 1 1.3-3.5l9-23c5.9-14.7 11.4-30.7 19.7-44.4 3.9-6.2 11.4-11.4 18.9-8.6s8.5 11.3 8.3 18.3c0 .8 2.5-2.9 2.7-3.2s3.2-4.4 3.3-6.4c.1-9.8-3.5-22.3-16-19.3-10.3 2.5-16.4 15.1-20.9 23.6-13 24.7-22 51.1-32.7 76.9a1.1 1.1 0 0 0 -.1.8c11.2 3.8 20.7 1.9 30.3-4.7a76.5 76.5 0 0 0 19.2-20.1c11.7-17 19.4-36.5 20.2-57.2 0-.8-2.5 2.9-2.7 3.2s-3.2 4.5-3.3 6.5z"/><path d="m95 142.5c10.7 1.4 21 4 30.2 9.8 7.4 4.7 13.8 10.9 20.7 16.3 4.1 3.2 8.1 6.5 13.3 7.7a28.4 28.4 0 0 0 16.8-1.5c10.2-4.1 18.6-12.3 25.2-20.9 13.6-17.8 23-40.3 23.1-62.9 0-4.9-.5-10.5-4-14.3s-9.1-4.6-13.8-2.8c-9.8 3.6-15.8 16.4-20.2 25-11.5 22.5-20.4 46.2-29.6 69.7s-18.8 48.6-32.7 70.5c-6.6 10.4-15.7 24.8-28.9 27.1-10.2 1.8-17.2-6.2-19.6-15.2a37.5 37.5 0 0 1 -.7-14.9 20.5 20.5 0 0 1 1.5-6.6c1.2-2.8 4-5 6.5-6.8 9.2-6.9 20.9-9.3 32.2-9.9 24.3-1.4 49.9 4.9 67.9 22 20.6 19.6 27.9 50.1 22.9 77.6-.1.6 2.5-2.9 2.7-3.2 1.1-1.9 2.8-4.2 3.2-6.4 4.4-24.2-.5-51-16-70.5-13.8-17.5-34.9-27-56.7-29.3s-45.8.2-59.2 18.3c-9.9 13.2-17.8 35.8-5 50.1 7.7 8.5 19.1 5 26.9-1.4s15.7-18 21.9-27.8c13.4-21.4 23.7-44.5 33.1-68s18.5-48.6 29.6-72c2.9-6.2 5.7-13.1 11.8-16.9 4.4-2.7 10.2-3.2 14.5-.1 9.9 6.9 5.5 26.2 3.2 35.9-3.4 14.3-10.1 26.4-21.6 35.8s-24.7 14.2-36.7 5.8c-8.5-5.8-15.8-13.2-24.3-19.1s-20.7-9.8-32.3-11.3c-2.2-.3-5.3 10.3-5.9 10.2z"/><path d="m154.6 160.3c-14.9-15.9-32.9-25.6-54.8-27.9-1.6-.2-4.7 7.2-5.3 8.4-7.9 16.7-17 36.1-31.5 48-6 4.9-14 8.5-21.5 4.8-4.9-2.3-8-7.2-9.6-12.2a37.5 37.5 0 0 1 -.8-19.1c1.5-7.3 7.2-11.4 13.7-14.7 14.7-7.4 33.3-7.4 49.2-5.1 1.5.3 4.8-7.2 5.3-8.4 6.1-13.2 11.6-26.6 16.9-40.1.9-2.2-1.6 1.2-1.7 1.4a37.6 37.6 0 0 0 -3.9 7.1c-5 12.9-10.3 25.8-16.1 38.3l5.3-8.4c-15.9-2.3-34.1-2.3-48.9 4.9-12.1 5.9-21 18.4-24.8 31.1-3.2 10.5-2.7 25.4 6.1 33.1 13 11.4 28.7-4.5 36.3-14.5 12.4-16.3 22.2-34.5 30.8-52.9l-5.3 8.4c21.8 2.4 39.8 12.1 54.8 28-.2-.2 7.1-8.7 5.8-10.2z"/><path d="m55.2 35c5.2-7.3 15.1-2.3 19.1 3.3 5.4 7.7 6.4 17.5 7.9 26.4 3 17.1 11.4 32.1 28.3 38.6 1.3.5 6.1-10 5.9-10.1a43.2 43.2 0 0 1 -19.8-15.5c-6-8.7-7.7-18.6-9.5-28.7-1.4-8.6-3.4-19.4-10.8-25s-13.4-2.6-17.6 3.4c-1.5 2.2-3.4 4.7-4.2 7.2s-.6 2.4.7.4z"/><path d="m174.2 30.9c-.5 13.5-3.3 28.6-10.8 40.1s-18.5 21.7-31.2 24.1a26.9 26.9 0 0 1 -9.8-.2c-1.1-.3-4.4-.5-5.2-1.1h-.9l.6-1.8c.3-1.1 1-2.4 1.4-3.5l9-23c5.9-14.7 11.4-30.7 19.7-44.4 3.9-6.2 11.4-11.4 18.9-8.6s8.5 11.3 8.3 18.3c0 .8 2.5-2.9 2.7-3.2s3.2-4.4 3.3-6.4c.1-9.8-3.5-22.3-16-19.3-10.3 2.5-16.4 15.1-20.9 23.6-13 24.7-22 51.1-32.7 76.9a1.1 1.1 0 0 0 -.1.8c11.2 3.8 20.7 1.9 30.3-4.7a76.5 76.5 0 0 0 19.2-20c11.7-17 19.4-36.5 20.2-57.2 0-.8-2.5 2.9-2.7 3.2s-3.2 4.4-3.3 6.4z"/><path d="m95 140.9c10.7 1.4 21 4 30.2 9.8 7.4 4.8 13.8 11 20.7 16.4 4.1 3.1 8.1 6.5 13.3 7.6a27.7 27.7 0 0 0 16.8-1.5c10.2-4.1 18.6-12.3 25.2-20.9 13.6-17.8 23-40.2 23.1-62.9 0-4.9-.5-10.5-4-14.3s-9.1-4.6-13.8-2.8c-9.8 3.6-15.8 16.4-20.2 25.1-11.5 22.4-20.4 46.2-29.6 69.7s-18.8 48.6-32.7 70.4c-6.6 10.5-15.7 24.8-28.9 27.1-10.2 1.8-17.2-6.2-19.6-15.2a37.5 37.5 0 0 1 -.7-14.9 21.1 21.1 0 0 1 1.5-6.6c1.2-2.7 4-5 6.5-6.8 9.2-6.9 20.9-9.2 32.2-9.9 24.3-1.4 49.9 4.9 67.9 22 20.6 19.6 27.9 50.1 22.9 77.6-.1.6 2.5-2.8 2.7-3.2 1.1-1.9 2.8-4.2 3.2-6.4 4.4-24.2-.5-50.9-16-70.5-13.8-17.5-34.9-27-56.7-29.3s-45.8.2-59.2 18.3c-9.9 13.3-17.8 35.9-5 50.1 7.7 8.5 19.1 5 26.9-1.4s15.7-18 21.9-27.8c13.4-21.4 23.7-44.5 33.1-67.9s18.5-48.7 29.6-72.1c2.9-6.2 5.7-13.1 11.8-16.9 4.4-2.7 10.2-3.1 14.5-.1 9.9 6.9 5.5 26.2 3.2 35.9-3.4 14.3-10.1 26.5-21.6 35.8s-24.7 14.2-36.7 5.8c-8.5-5.8-15.8-13.2-24.3-19.1s-20.7-9.8-32.3-11.3c-2.2-.3-5.3 10.3-5.9 10.2z"/><path d="m154.6 160.3c-14.9-15.9-32.7-27.1-54.8-29.5-1.6-.2-4.8 7.2-5.3 8.5-7.9 16.6-17 36-31.5 47.9-6 4.9-14 8.6-21.5 4.9-4.9-2.4-8-7.3-9.6-12.3a37.1 37.1 0 0 1 -.8-19c1.5-7.3 7.2-11.5 13.7-14.8 14.7-7.4 33.3-7.3 49.2-5 1.5.2 4.8-7.3 5.3-8.5 6.1-13.2 11.6-26.6 16.9-40.1.9-2.1-1.6 1.2-1.7 1.4a37.6 37.6 0 0 0 -3.9 7.1c-5 12.9-10.3 25.8-16.1 38.4l5.3-8.5c-15.9-2.3-34.1-2.2-48.9 4.9-12.1 5.9-21 18.4-24.8 31.1-3.2 10.5-2.7 25.4 6.1 33.2 13 11.4 28.7-4.6 36.3-14.6 12.4-16.3 22.2-34.5 30.8-52.9l-5.3 8.5c22 2.4 39.8 13.5 54.8 29.5-.2-.2 7.2-8.7 5.8-10.2z"/><path d="m55.2 33.5c5.2-7.4 15.1-2.3 19.1 3.2 5.4 7.7 6.4 17.5 7.9 26.4 3 17.1 11.4 32.1 28.3 38.6 1.3.5 6.1-10 5.9-10.1a43.2 43.2 0 0 1 -19.8-15.5c-6-8.6-7.7-18.5-9.5-28.7-1.4-8.6-3.4-19.4-10.8-25s-13.4-2.6-17.6 3.5c-1.5 2.1-3.4 4.6-4.2 7.1s-.6 2.4.7.5z"/><path d="m174.2 29.3c-.5 13.6-3.3 28.6-10.8 40.1s-18.5 21.8-31.2 24.1a24.9 24.9 0 0 1 -9.8-.2c-1.1-.2-4.4-.5-5.2-1h-.9l.6-1.7a38.4 38.4 0 0 1 1.4-3.6l9-23c5.9-14.7 11.4-30.7 19.7-44.3 3.9-6.3 11.4-11.5 18.9-8.7s8.5 11.4 8.3 18.3c0 .8 2.5-2.9 2.7-3.1s3.2-4.5 3.3-6.5c.1-9.8-3.5-22.3-16-19.2-10.3 2.4-16.4 15-20.9 23.5-13 24.7-22 51.1-32.7 76.9a1.1 1.1 0 0 0 -.1.8c11.2 3.9 20.7 2 30.3-4.7a76.5 76.5 0 0 0 19.2-20.1c11.7-17 19.4-36.4 20.2-57.2 0-.7-2.5 2.9-2.7 3.2s-3.2 4.4-3.3 6.4z"/><path d="m57.7 33.9s-3.2 4.3-4.3 5.4-.2-6.7 5.2-13.2c1.3-1.6-.9 7.8-.9 7.8z"/><path d="m206.4 307.4s-1.1 6.2-1.3 8.1 3.3-2.7 5.6-7.3c1-1.9-4.3-.8-4.3-.8z"/><path d="m35.6 156.3a14.9 14.9 0 0 0 -3.1 6.2c-1.2 4.3-1.2-4.7-1.2-4.7z"/><path d="m79.5 227.8a16.5 16.5 0 0 0 -3.1 6.2c-1.1 4.3-1.2-4.7-1.2-4.7z"/><path d="m173 1s5.1 2.5 6.9 7.6-6.9 2.7-6.9 2.7z"/><path d="m206.1 314.9c6.1-4 7.3-13.3 7.3-13.3l-3.7-1.4z"/></svg>