<svg viewBox="0 0 112.68 142.28" xmlns="http://www.w3.org/2000/svg"><path d="m54.37 85.55c.58 6.17 2.38 11.16 11.07 11.73.62 0 1.13-.58 1 0-1.4 7.28-1.66 11.76-3.57 18.92a.87.87 0 0 1 -1.33.49 50.7 50.7 0 0 0 -6.17-4.09l-.23-.08c-13.46-2.92-6.92 32.62 8.11 9.64 0 0 .84.4 1.53.68 15.87 6.56 18.63 7.32 27.37 3.68 6.09-2.54 10.39-11.06 9.63-9.77-14.25 13.25-20.78 10.25-35.86 2.5a.84.84 0 0 1 -.41-1c2.76-8.47 2.82-13.49 4.65-22.17a.91.91 0 0 1 .43-.58c11.66-6.7 19.09-20.82 18.48-34.18.1-4.13-2.36-7-6.46-4.74a.91.91 0 0 0 -.16.11c-10.3 8.42-12 24.62-15 37.15a1.39 1.39 0 0 1 -1.06.9 2.42 2.42 0 0 1 -.54.05c-6.25-.2-9.66-4.75-8.12-12m16.27-3.7c2.21-7.07 4.22-14.85 9-20.64a.87.87 0 0 1 1.47.22c4.43 10.59-3.47 26.09-11.99 33.62-1.11 1-2 1.51-1.42-.83.99-4.12 1.83-8.29 2.94-12.37zm-15.08 44.63c-6.23 7-11-.45-9.57-7.27a.92.92 0 0 1 .55-.63c3.6-1.49 6.75 2.28 9.92 4.42.94.64.53 2-.23 2.79-.22.24-.44.47-.67.69z"/><path d="m31.22 32h-.1z"/><path d="m31.45 32.11a1.09 1.09 0 0 0 -.23-.09.46.46 0 0 1 .23.09z"/><path d="m63.27 58.93c2.59-7.53 7-14.75 6.52-23v-.03c.39-8.28-5.63-13.95-12.53-6.07a46.93 46.93 0 0 0 -7.89 14.17c-2.21 5.88-1.46 6.66-1.46-.35 0-6.46.65-14.25-6.32-9.42l-.09.07c-3.23 2.82-5.33 6.68-7.3 10.51s-1.5.4-1.42-.42c.44-4.26 1.18-9.19-1.32-12.27-2.08-1.17-4.83 1.19-5.21 1.57-3.52 3.65-4.58 9.08-8 12.78a.78.78 0 0 1 -.89.15c-4.38-2.09-3.38-9.29 0-11l.16-.07q.33-.09.66-.15c-13.82 1.6-5.75 19.91 4.24 9.17l.08-.09c2.08-2.85 3.34-6.21 5.21-9.18a.76.76 0 0 1 1.38.26c1.91 9.44-1.25 19.33-3.21 28.58-1.74 6.92-3.13 17.15-4.76 23.86-.17.72.16 1 .89.89 2.59-.5 2.31-.14 2.67-2.39 0 0 0-.07 0-.1 3.18-16.66 7.55-36.4 17.73-50.32a1 1 0 0 1 1.49-.08c3.45 4.28-4.56 43.88-6.36 52-.15.67.14 1.08.92.88s2-.54 2.25-.63.22-.8.24-.9c5-18.67 7.83-42.84 20-58.39a2 2 0 0 1 2.6-.53c4.28 2.57 2.72 13.68 1.61 17.57-3.32 10.27-22.87 53.57-.16 51.16a.06.06 0 0 0 0 0c1-.22 1.45-.69 2.41-1-.43.12-.46.45-1 .59.47-.13.44-.46.87-.57-17.58.21-6.65-27.73-4.01-37.25zm-45.89-23.36a14 14 0 0 1 -2.48.71 12.72 12.72 0 0 1 2.48-.71z"/><path d="m17.38 35.57a14 14 0 0 1 -2.48.71 12.72 12.72 0 0 1 2.48-.71z"/></svg>