<svg xmlns="http://www.w3.org/2000/svg" width="4.1in" height="4.4in" viewBox="0 0 294.2 320.4"><path d="M11.4 90.5v36.7H5V72.9h6.4l11.8 37.4 11.9-37.4h6.3v54.3H35V90.3l-9.5 29.8h-4.6zm43.4-11.3v17.6h13.3v5.8H54.8v18.3h18.1v6.3H48.4V72.9h24.5v6.3zm159.7 99.5v17.6h13.2v5.8h-13.2v18.2h18.1v6.4h-24.5v-54.3h24.5v6.3zm28.4 0v17.6h13.3v5.8h-13.3v18.2H261v6.4h-24.5v-54.3H261v6.3zm48.3 8h-6.4c0-6.1-3.3-8.9-7.9-8.9s-7.5 2.6-7.5 7c0 11.7 22.2 11.8 22.2 28.3 0 9-5.5 14.2-14.5 14.2s-14.8-5.4-14.8-15.4h6.4c0 6.5 3.5 9.3 8.5 9.3s8-2.6 8-7.8c0-12.5-22.2-12.8-22.2-28.6 0-7.7 4.9-13.2 13.9-13.2s14.3 5.5 14.3 15.1z"/><path d="M92.9 145.4c11.7 1.2 23.4 3.4 34.1 8.5 8.5 4 16 9.8 23.8 15 4.7 3.2 9.6 6.8 14.8 9s12.8 2.9 18.9 2.1c12.9-1.6 25.2-9.9 34.4-18.7C236 144.7 249.2 120 250.7 96c.4-5.8.4-12.6-3.6-17.2s-9.9-5.6-15.2-4.7c-12 2-19.3 13.8-25.1 23.3-14.8 24-26.5 49.7-38.6 75.1s-24.8 51.3-42.9 73.4c-8.7 10.5-20 22.9-34.5 24.1-11.2.9-20.1-6.5-22.9-17.1a31.3 31.3 0 0 1-.1-15.8c.3-1.4.9-2.6 1.2-3.9-.3 1-1.8 1.9-.5 1.2s1.5-1.6 2.1-2.2a52.9 52.9 0 0 1 7.5-5.7c11.4-6.9 25.2-9.1 38.3-9.8 25.3-1.3 52 2.5 74.1 15.4s38.9 37.7 40.2 65a82.8 82.8 0 0 1-1.8 20.5c-.2.7 2.7-3.1 2.9-3.5 1.4-2.2 3.1-4.7 3.7-7.2 5.7-26.3-2.3-54.6-21.7-73.5s-44.1-25.8-69.1-27.8c-23.2-1.8-53.1-.8-70.1 17.6-12.2 13.1-22.7 40.3-5.2 53.9 10.4 8.2 24.1 3.2 33.7-3.9s19-19 26.6-29.6c16.4-22.7 29.1-47.6 41.1-72.7 6.2-13 12.2-26 18.6-38.9s12-25.9 20.7-36.6c7.1-8.8 24-16.2 31.7-3.6 3.5 5.8 2.7 13.7 1.8 20.1a80.9 80.9 0 0 1-5.1 19.3c-5 12.1-15.4 22.1-26.3 29s-26.8 12.2-40.1 6.4c-9.6-4.2-18.1-11.5-26.7-17.2a89.5 89.5 0 0 0-25.9-11.9 136.1 136.1 0 0 0-20.1-3.4c-2.5-.3-5.8 11.4-6.5 11.3z"/><path d="M164.7 163.2c-19.2-16.8-41.1-26.8-66.6-29.1-1.1-.1-3.5 4.8-3.8 5.4-8.5 14.9-18.1 29.3-29.9 41.8-9.3 10-24 20.9-38.4 14.7-10.1-4.4-14.1-16.2-13.1-26.5.3-2.8 1.5-5.3 1.8-8s-.3.9-.7 1.2a15.4 15.4 0 0 0 1.7-1.9 46 46 0 0 1 4.7-4.1 55.4 55.4 0 0 1 18.9-8.8c16.8-4.6 35.1-4.5 52.3-2.4 1.1.1 3.5-4.8 3.8-5.4 8.1-14.3 15.4-29 22.5-43.8.9-2.1.5-2.1-.8-.5a40 40 0 0 0-4.7 8c-5.7 12.1-11.6 24.1-18.1 35.7l3.8-5.4c-18.4-2.2-38.7-2.3-56.5 3.8-15.3 5.2-25.6 15.9-32.1 30.5-4.8 11-5.1 26 4.1 35 13.5 13.2 32.8 1.2 43.4-9.5 15.5-15.6 27.6-34.7 38.4-53.8l-3.8 5.4c25.5 2.2 47.4 12.2 66.5 29.1.1 0 7.9-10.2 6.6-11.4z"/><path d="M43.3 37.2c6-7.1 17.1-4.6 22.9 1.2S75 56.2 77 65.7s5 18.1 11.6 25.4a51.9 51.9 0 0 0 23.3 14.6c1.7.6 6.6-11.3 6.5-11.3a52.5 52.5 0 0 1-23.8-15.2C87.5 71 85 61.3 82.8 50.9s-4.5-20.4-13-26.2c-6.8-4.8-16-4-21.4 2.4a37.1 37.1 0 0 0-4.7 7.6c-.3.6-2 4.4-.4 2.5z"/><path d="M190.1 32.3c-.8 18.1-7 34.2-20.4 46.6a72.8 72.8 0 0 1-21.3 14.2c-9.9 4.4-19.7 4.3-30 1.3l-1.1 3.1C128.2 75.6 137.7 53 150.1 32c5.3-9 12.3-18.6 23.7-19.1s16.5 8.7 16.3 19.4c0 .8 2.8-3.2 3-3.6s3.6-4.9 3.6-7.2c.1-5.5-.2-11.8-4.6-15.9s-9.4-4.5-14.3-3.7c-11.5 1.9-18.6 12.9-24.3 22-15.7 25.1-27.3 52.3-40.5 78.7 0 .1-1.5 3-1.1 3.1 12.7 3.7 24.1 2.3 35.7-4a83.4 83.4 0 0 0 24.6-20.8c13.5-16.7 23.5-37.7 24.5-59.4.1-.8-2.8 3.3-3 3.6-1.1 1.9-3.5 4.9-3.6 7.2zM91.9 145.4c11.7 1.2 23.4 3.4 34.1 8.5 8.5 4 16 9.8 23.8 15 4.7 3.2 9.6 6.8 14.8 9s12.8 2.9 19 2.1c12.9-1.6 25.2-9.9 34.3-18.7 17.2-16.6 30.3-41.3 31.8-65.3.4-5.8.4-12.6-3.5-17.2s-9.9-5.6-15.3-4.7c-11.9 2-19.3 13.8-25.1 23.3-14.7 24-26.5 49.7-38.5 75.1s-24.8 51.3-43 73.4c-8.7 10.5-20 22.9-34.5 24.1-11.2.9-20.1-6.5-22.9-17.1a33.8 33.8 0 0 1-.1-15.8c.4-1.4.9-2.6 1.2-3.9-.2 1-1.8 1.9-.4 1.2s1.5-1.6 2-2.2a52.9 52.9 0 0 1 7.5-5.7c11.4-6.9 25.2-9.1 38.4-9.8 25.2-1.3 51.9 2.5 74.1 15.4s38.9 37.7 40.1 65a78.3 78.3 0 0 1-1.8 20.5c-.2.7 2.7-3.1 3-3.5 1.3-2.2 3.1-4.7 3.6-7.2 5.8-26.3-2.3-54.6-21.6-73.5s-44.1-25.8-69.2-27.8c-23.2-1.8-53-.8-70.1 17.6-12.1 13.1-22.7 40.3-5.2 53.9 10.5 8.2 24.2 3.2 33.7-3.9s19-19 26.7-29.6c16.3-22.7 29.1-47.6 41.1-72.7 6.2-13 12.2-26 18.5-38.9s12.1-25.9 20.7-36.6c7.1-8.8 24-16.2 31.7-3.6 3.6 5.8 2.7 13.7 1.8 20.1a72.4 72.4 0 0 1-5.1 19.3c-5 12.1-15.4 22.1-26.3 29s-26.7 12.2-40.1 6.4c-9.5-4.2-18-11.5-26.7-17.2a87.1 87.1 0 0 0-25.9-11.9 136.1 136.1 0 0 0-20.1-3.4c-2.5-.3-5.7 11.4-6.5 11.3z"/><path d="M163.7 163.2c-19.1-16.8-41-26.8-66.5-29.1-1.2-.1-3.6 4.8-3.9 5.4-8.4 14.9-18.1 29.3-29.9 41.8-9.3 10-24 20.9-38.3 14.7-10.2-4.4-14.1-16.2-13.1-26.5.2-2.8 1.4-5.3 1.7-8s-.3.9-.7 1.2a15.4 15.4 0 0 0 1.7-1.9 59.9 59.9 0 0 1 4.7-4.1 55.4 55.4 0 0 1 18.9-8.8c16.8-4.6 35.2-4.5 52.3-2.4 1.1.1 3.6-4.8 3.9-5.4 8-14.3 15.3-29 22.4-43.8 1-2.1.5-2.1-.8-.5a39.6 39.6 0 0 0-4.6 8c-5.8 12.1-11.6 24.1-18.2 35.7l3.9-5.4c-18.5-2.2-38.8-2.3-56.6 3.8-15.3 5.2-25.6 15.9-32 30.5-4.9 11-5.2 26 4 35 13.6 13.2 32.8 1.2 43.4-9.5 15.5-15.6 27.6-34.7 38.5-53.8l-3.9 5.4c25.5 2.2 47.4 12.2 66.5 29.1.1 0 7.9-10.2 6.6-11.4z"/><path d="M42.3 37.2c6-7.1 17.1-4.6 22.9 1.2S74 56.2 76 65.7s5 18.1 11.6 25.4a51.9 51.9 0 0 0 23.3 14.6c1.7.6 6.6-11.3 6.5-11.3a51.6 51.6 0 0 1-23.7-15.2C86.5 71 84 61.3 81.9 50.9s-4.6-20.4-13.1-26.2c-6.8-4.8-16-4-21.4 2.4a37.1 37.1 0 0 0-4.7 7.6c-.2.6-1.9 4.4-.4 2.5z"/><path d="M189.1 32.3c-.8 18.1-7 34.2-20.3 46.6a74.6 74.6 0 0 1-21.4 14.2c-9.9 4.4-19.7 4.3-30 1.3l-1.1 3.1c11-21.9 20.4-44.5 32.9-65.5 5.2-9 12.3-18.6 23.7-19.1s16.5 8.7 16.2 19.4c0 .8 2.8-3.2 3-3.6s3.6-4.9 3.6-7.2c.2-5.5-.2-11.8-4.5-15.9s-9.4-4.5-14.4-3.7c-11.5 1.9-18.6 12.9-24.3 22-15.7 25.1-27.2 52.3-40.5 78.7 0 .1-1.5 3-1.1 3.1 12.7 3.7 24.2 2.3 35.7-4a83.8 83.8 0 0 0 24.7-20.8c13.5-16.7 23.5-37.7 24.4-59.4.1-.8-2.7 3.3-2.9 3.6-1.2 1.9-3.6 4.9-3.7 7.2zM90.9 145.4c11.7 1.2 23.4 3.4 34.1 8.5 8.5 4 16 9.8 23.8 15 4.7 3.2 9.6 6.8 14.8 9s12.8 2.9 19 2.1c12.9-1.6 25.2-9.9 34.3-18.7 17.2-16.6 30.3-41.3 31.9-65.3.3-5.8.4-12.6-3.6-17.2s-9.9-5.6-15.3-4.7c-11.9 2-19.3 13.8-25.1 23.3-14.7 24-26.5 49.7-38.5 75.1s-24.8 51.3-43 73.4c-8.7 10.5-19.9 22.9-34.5 24.1-11.2.9-20.1-6.5-22.9-17.1a33.8 33.8 0 0 1-.1-15.8c.4-1.4.9-2.6 1.2-3.9-.2 1-1.8 1.9-.4 1.2s1.5-1.6 2-2.2a59.3 59.3 0 0 1 7.5-5.7c11.4-6.9 25.3-9.1 38.4-9.8 25.3-1.3 51.9 2.5 74.1 15.4s38.9 37.7 40.1 65a78.3 78.3 0 0 1-1.8 20.5c-.1.7 2.7-3.1 3-3.5 1.3-2.2 3.1-4.7 3.6-7.2 5.8-26.3-2.2-54.6-21.6-73.5s-44.1-25.8-69.2-27.8c-23.2-1.8-53-.8-70.1 17.6-12.1 13.1-22.6 40.3-5.2 53.9 10.5 8.2 24.2 3.2 33.7-3.9s19-19 26.7-29.6c16.3-22.7 29.1-47.6 41.1-72.7 6.2-13 12.2-26 18.6-38.9s12-25.9 20.6-36.6c7.1-8.8 24.1-16.2 31.7-3.6 3.6 5.8 2.7 13.7 1.8 20.1a72.4 72.4 0 0 1-5.1 19.3c-4.9 12.1-15.4 22.1-26.3 29s-26.7 12.2-40 6.4c-9.6-4.2-18.1-11.5-26.8-17.2a87.7 87.7 0 0 0-25.8-11.9 137.4 137.4 0 0 0-20.2-3.4c-2.5-.3-5.7 11.4-6.5 11.3z"/><path d="M163.4 162.5c-19.2-17-41.7-26.1-67.2-28.4-1.2-.1-3.5 4.8-3.9 5.4-8.4 14.9-18.1 29.3-29.8 41.8-9.4 10-24.1 20.9-38.4 14.7-10.2-4.4-14.1-16.2-13.1-26.5.2-2.8 1.4-5.3 1.7-8s-.3.9-.7 1.2a16.2 16.2 0 0 0 1.8-1.9 44.9 44.9 0 0 1 4.6-4.1 55.4 55.4 0 0 1 18.9-8.8c16.8-4.6 35.2-4.5 52.3-2.4 1.1.1 3.6-4.8 3.9-5.4 8-14.3 15.3-29 22.4-43.8 1-2.1.5-2.1-.8-.5a39.6 39.6 0 0 0-4.6 8c-5.8 12.1-11.6 24.1-18.2 35.7l3.9-5.4c-18.5-2.2-38.8-2.3-56.6 3.8-15.2 5.2-25.6 15.9-32 30.5-4.9 11-5.2 26 4 35 13.6 13.2 32.8 1.2 43.4-9.5 15.5-15.6 27.6-34.7 38.5-53.8l-3.9 5.4c25.5 2.2 48 11.4 67.3 28.3.1.1 7.9-10.1 6.5-11.3z"/><path d="M41.3 37.2c6-7.1 17.1-4.6 22.9 1.2S73.1 56.2 75 65.7s5 18.1 11.6 25.4a52.5 52.5 0 0 0 23.3 14.6c1.8.6 6.6-11.3 6.6-11.3a51.9 51.9 0 0 1-23.8-15.2C85.5 71 83 61.3 80.9 50.9s-4.6-20.4-13-26.2-16.1-4-21.5 2.4a37.1 37.1 0 0 0-4.7 7.6c-.2.6-1.9 4.4-.4 2.5z"/><path d="M188.1 32.3c-.8 18.1-7 34.2-20.3 46.6a74.6 74.6 0 0 1-21.4 14.2c-9.9 4.4-19.7 4.3-29.9 1.3l-1.2 3.1c11-21.9 20.4-44.5 32.9-65.5 5.3-9 12.3-18.6 23.7-19.1s16.5 8.7 16.2 19.4c0 .8 2.8-3.2 3-3.6s3.6-4.9 3.7-7.2c.1-5.5-.3-11.8-4.6-15.9s-9.4-4.5-14.4-3.7c-11.4 1.9-18.6 12.9-24.3 22-15.7 25.1-27.2 52.3-40.5 78.7 0 .1-1.5 3-1.1 3.1 12.7 3.7 24.2 2.3 35.7-4a82.6 82.6 0 0 0 24.7-20.8c13.5-16.7 23.5-37.7 24.5-59.4 0-.8-2.8 3.3-3 3.6-1.2 1.9-3.5 4.9-3.7 7.2zM90.9 143.8c11.7 1.2 23.4 3.4 34.1 8.5 8.5 4 16 9.8 23.8 15 4.7 3.2 9.6 6.8 14.8 9s12.8 2.9 19 2.1c12.9-1.6 25.2-9.9 34.3-18.7 17.2-16.6 30.3-41.3 31.9-65.3.3-5.8.4-12.6-3.6-17.2s-9.9-5.6-15.3-4.7c-11.9 2-19.3 13.8-25.1 23.3-14.7 24-26.5 49.7-38.5 75.1s-24.8 51.3-43 73.3c-8.7 10.6-19.9 23-34.5 24.2-11.2.9-20.1-6.5-22.9-17.1a33.8 33.8 0 0 1-.1-15.8c.4-1.4.9-2.6 1.2-3.9-.2 1-1.8 1.9-.4 1.2s1.5-1.6 2-2.2a59.3 59.3 0 0 1 7.5-5.7c11.4-6.9 25.3-9.1 38.4-9.8 25.3-1.3 51.9 2.5 74.1 15.4s38.9 37.7 40.1 65a78.3 78.3 0 0 1-1.8 20.5c-.1.7 2.7-3.1 3-3.5 1.3-2.2 3.1-4.7 3.6-7.2 5.8-26.3-2.2-54.6-21.6-73.5s-44.1-25.9-69.2-27.8c-23.2-1.8-53-.8-70.1 17.6-12.1 13.1-22.6 40.3-5.2 53.9 10.5 8.2 24.2 3.2 33.7-3.9s19-19 26.7-29.6c16.3-22.7 29.1-47.6 41.1-72.7 6.2-13 12.2-26 18.6-38.9s12-26 20.6-36.6c7.1-8.8 24.1-16.2 31.7-3.6 3.6 5.8 2.7 13.7 1.8 20.1a72.4 72.4 0 0 1-5.1 19.3c-4.9 12.1-15.4 22.1-26.3 29s-26.7 12.2-40 6.4c-9.6-4.2-18.1-11.5-26.8-17.2a85.3 85.3 0 0 0-25.8-11.9 137.4 137.4 0 0 0-20.2-3.4c-2.5-.3-5.7 11.4-6.5 11.3z"/><path d="M163.4 162.5c-19.2-17-41.5-27.7-67.2-30-1.2-.1-3.5 4.8-3.9 5.4-8.4 14.9-18.1 29.3-29.8 41.8-9.4 10-24.1 20.9-38.4 14.7C13.9 190 10 178.2 11 167.9c.2-2.8 1.4-5.3 1.7-8s-.3.9-.7 1.2a16.2 16.2 0 0 0 1.8-1.9 44.9 44.9 0 0 1 4.6-4.1 55.4 55.4 0 0 1 18.9-8.8c16.8-4.6 35.2-4.5 52.3-2.4 1.1.1 3.6-4.9 3.9-5.4 8-14.3 15.3-29 22.4-43.8 1-2.1.5-2.1-.8-.5a39.6 39.6 0 0 0-4.6 8c-5.8 12-11.6 24-18.2 35.7l3.9-5.4c-18.5-2.2-38.8-2.3-56.6 3.7-15.2 5.3-25.6 16-32 30.6-4.9 11-5.2 26 4 35C25.2 215 44.4 203 55 192.3c15.5-15.6 27.6-34.7 38.5-53.8l-3.9 5.4c25.8 2.2 48 12.9 67.3 29.9.1.1 7.9-10.1 6.5-11.3z"/><path d="M41.3 35.6c6-7.1 17.1-4.6 22.9 1.2S73.1 54.6 75 64.1s5 18.1 11.6 25.4a53.4 53.4 0 0 0 23.3 14.6c1.8.6 6.6-11.3 6.6-11.3a51.9 51.9 0 0 1-23.8-15.2c-7.2-8.2-9.7-17.9-11.8-28.3s-4.6-20.4-13-26.2-16.1-4-21.5 2.4a37.1 37.1 0 0 0-4.7 7.6c-.2.6-1.9 4.4-.4 2.5z"/><path d="M188.1 30.7c-.8 18.1-7 34.2-20.3 46.6a74.6 74.6 0 0 1-21.4 14.2c-9.9 4.4-19.7 4.2-29.9 1.3l-1.2 3.1c11-21.9 20.4-44.5 32.9-65.5 5.3-9 12.3-18.6 23.7-19.1s16.5 8.7 16.2 19.4c0 .8 2.8-3.2 3-3.6s3.6-4.9 3.7-7.2c.1-5.5-.3-11.8-4.6-15.9S180.8-.5 175.8.3c-11.4 1.9-18.6 12.9-24.3 22-15.7 25.1-27.2 52.3-40.5 78.7 0 .1-1.5 3-1.1 3.1 12.7 3.7 24.2 2.3 35.7-4a82.6 82.6 0 0 0 24.7-20.8c13.5-16.7 23.5-37.7 24.5-59.4 0-.8-2.8 3.3-3 3.6-1.2 1.9-3.5 4.9-3.7 7.2zM45.9 34.8l-6.1 5.6c-.9.7.4-4.7 3-9.6 1.1-1.9 3.1 4 3.1 4zm181.8 277.3s-1.5 6.2-1.9 8.1 3.9-2.7 6.8-7.4c1.2-1.9-4.9-.7-4.9-.7zM17.6 158.9a15.1 15.1 0 0 0-3.7 6.3c-1.5 4.3-1.5-4.8-1.5-4.8zm53.9 72.5a15.1 15.1 0 0 0-3.7 6.3c-1.5 4.3-1.5-4.8-1.5-4.8z"/><path d="M186.3 1.5s6.3 2.5 8.5 7.7-8.5 2.7-8.5 2.7zm40.9 318.1a25 25 0 0 0 8.4-13.5l-4.3-1.3z"/></svg>