<?xml version="1.0" encoding="utf-8"?>
<!-- Generator: Adobe Illustrator 24.0.1, SVG Export Plug-In . SVG Version: 6.00 Build 0)  -->
<svg version="1.1" id="Layer_1" xmlns="http://www.w3.org/2000/svg" xmlns:xlink="http://www.w3.org/1999/xlink" x="0px" y="0px"
	 viewBox="0 0 280.8 316.8" style="enable-background:new 0 0 280.8 316.8;" xml:space="preserve">
<style type="text/css">
	.st0{fill:#C45118;}
</style>
<path class="st0" d="M11.3,88.4v36.3H4.9V71h6.3l11.7,37l11.8-37h6.2v53.7h-6.3V88.2l-9.4,29.4h-4.5L11.3,88.4z"/>
<path class="st0" d="M54.1,77.2v17.5h13.1v5.6H54.1v18.1H72v6.2H47.8V71H72v6.2H54.1z"/>
<path class="st0" d="M202.1,177.3v17.4h13v5.7h-13v18h17.9v6.2h-24.2v-53.6h24.2v6.2L202.1,177.3z"/>
<path class="st0" d="M230.1,177.3v17.4h13.1v5.7h-13.1v18H248v6.2h-24.2v-53.6H248v6.2L230.1,177.3z"/>
<path class="st0" d="M277.8,185.2h-6.3c0-6-3.3-8.9-7.8-8.9s-7.4,2.7-7.4,7c0,11.6,21.9,11.7,21.9,28c0,8.9-5.4,14-14.3,14
	c-8.9,0-14.6-5.3-14.6-15.2h6.3c0,6.4,3.5,9.2,8.4,9.2s7.9-2.6,7.9-7.7c0-12.4-21.9-12.6-21.9-28.3c0-7.6,4.8-13,13.7-13
	S277.8,175.7,277.8,185.2L277.8,185.2z"/>
<path class="st0" d="M95.4,143.2c10.6,1.4,20.7,4,29.8,9.7c7.3,4.6,13.6,10.8,20.5,16.1c4.1,3.2,8,6.4,13.1,7.6
	c5.6,1.2,11.3,0.7,16.6-1.5c10.1-4.1,18.4-12.2,24.9-20.6c13.4-17.6,22.7-39.8,22.8-62.1c0-4.8-0.5-10.4-4-14.1
	c-3.5-3.8-9-4.5-13.6-2.8c-9.7,3.6-15.6,16.2-20,24.7c-11.4,22.2-20.2,45.6-29.2,68.9s-18.6,48-32.3,69.7
	c-6.5,10.3-15.5,24.5-28.6,26.8c-10.2,1.8-17-6.1-19.4-15c-1.2-4.8-1.4-9.8-0.7-14.7c0.1-2.2,0.6-4.4,1.5-6.5c1.2-2.8,4-4.9,6.4-6.7
	c9.1-6.8,20.6-9.2,31.8-9.8c24-1.4,49.3,4.8,67.1,21.7c20.4,19.4,27.6,49.5,22.6,76.7c-0.1,0.6,2.5-2.9,2.7-3.2
	c1.1-1.9,2.8-4.1,3.2-6.3c4.3-23.9-0.5-50.4-15.8-69.7c-13.6-17.3-34.5-26.7-56-28.9c-21.5-2.3-45.3,0.2-58.5,18.1
	c-9.8,13-17.6,35.4-4.9,49.5c7.6,8.4,18.9,4.9,26.6-1.4s15.5-17.8,21.6-27.5c13.2-21.1,23.4-44,32.7-67.2s18.3-48,29.2-71.1
	c2.9-6.1,5.6-12.9,11.7-16.7c4.3-2.7,10.1-3.2,14.3-0.1c9.8,6.8,5.4,25.9,3.2,35.5c-3.4,14.1-10,26.1-21.3,35.4
	c-11.4,9.3-24.4,14-36.3,5.7c-8.4-5.7-15.6-13-24-18.9c-8.4-5.8-20.5-9.7-31.9-11.2C99.1,132.9,96,143.3,95.4,143.2L95.4,143.2z"/>
<path class="st0" d="M153.7,161.6c-14.6-15.7-31.9-26.1-53.6-28.4c-1.6-0.2-4.7,7.1-5.2,8.3c-7.8,16.5-16.8,35.7-31.1,47.4
	c-5.9,4.8-13.8,8.4-21.2,4.7c-4.8-2.3-7.9-7.1-9.5-12.1c-1.9-6.1-2.2-12.6-0.8-18.9c1.5-7.2,7.1-11.3,13.5-14.5
	c14.5-7.3,32.9-7.3,48.6-5c1.5,0.3,4.7-7.1,5.2-8.3c6-13,11.5-26.3,16.7-39.6c0.9-2.2-1.6,1.2-1.7,1.4c-1.5,2.2-2.8,4.5-3.9,7
	c-5,12.7-10.2,25.5-15.9,37.8l5.2-8.3c-15.7-2.3-33.7-2.3-48.3,4.8c-12,5.8-20.7,18.2-24.5,30.7c-3.2,10.4-2.7,25.1,6,32.7
	c12.8,11.3,28.4-4.4,35.9-14.3c12.3-16.1,21.9-34.1,30.4-52.3l-5.2,8.3c21.5,2.4,38.8,12.7,53.6,28.4
	C147.8,171.4,155,163,153.7,161.6L153.7,161.6z"/>
<path class="st0" d="M56.1,37c5.1-7.2,14.9-2.3,18.9,3.3c5.3,7.6,6.2,17.3,7.8,26.1c3,16.9,11.3,31.7,28,38.1c1.3,0.5,6-9.9,5.8-10
	c-7.9-3.1-14.7-8.4-19.6-15.3c-5.9-8.6-7.6-18.4-9.4-28.4c-1.4-8.5-3.4-19.2-10.7-24.7s-13.2-2.6-17.4,3.4c-1.7,2.1-3.1,4.5-4.1,7.1
	C54.9,38.2,54.8,39,56.1,37L56.1,37z"/>
<path class="st0" d="M173.7,33c-0.5,13.3-3.3,28.3-10.7,39.6S144.7,94,132.2,96.4c-3.2,0.5-6.5,0.5-9.7-0.2
	c-1.1-0.3-4.3-0.5-5.1-1.1h-0.9l0.6-1.8c0.3-1.1,1-2.4,1.4-3.5l8.9-22.7c5.8-14.5,11.3-30.3,19.5-43.9c3.9-6.1,11.3-11.3,18.7-8.5
	S173.9,26,173.7,33c0,0.7,2.5-3,2.7-3.3c0.2-0.3,3.2-4.3,3.3-6.3c0.1-9.7-3.5-22-15.9-19.1c-10.1,2.5-16.1,14.9-20.6,23.3
	c-12.8,24.4-21.7,50.5-32.3,76c-0.1,0.2-0.2,0.5-0.1,0.8c11.1,3.8,20.5,1.9,29.9-4.6c7.5-5.4,13.9-12.1,19-19.9
	c11.6-16.8,19.2-36.1,20-56.5c0-0.8-2.5,2.9-2.7,3.2S173.8,31,173.7,33L173.7,33z"/>
<path class="st0" d="M94.7,143.2c10.6,1.4,20.7,4,29.8,9.7c7.3,4.6,13.6,10.8,20.5,16.1c4.1,3.2,8,6.4,13.1,7.6
	c5.6,1.2,11.3,0.7,16.6-1.5c10.1-4.1,18.4-12.2,24.9-20.6c13.4-17.6,22.7-39.8,22.8-62.1c0-4.8-0.5-10.4-3.9-14.1
	c-3.4-3.8-9.1-4.5-13.7-2.8c-9.7,3.6-15.5,16.2-20,24.7c-11.4,22.2-20.2,45.6-29.2,68.9s-18.5,48-32.3,69.7
	c-6.5,10.3-15.5,24.5-28.6,26.8c-10.1,1.8-17-6.1-19.4-15c-1.2-4.8-1.4-9.8-0.7-14.7c0.2-2.2,0.7-4.4,1.5-6.5c1.2-2.8,4-4.9,6.4-6.7
	c9.1-6.8,20.6-9.2,31.8-9.8c24-1.4,49.3,4.8,67.1,21.7c20.4,19.4,27.6,49.5,22.6,76.7c-0.1,0.6,2.5-2.9,2.7-3.2
	c1.2-1.9,2.8-4.1,3.2-6.3c4.3-23.9-0.5-50.4-15.8-69.7c-13.6-17.3-34.5-26.7-56-28.9c-21.5-2.3-45.3,0.2-58.5,18.1
	c-9.8,13-17.5,35.4-4.8,49.5c7.5,8.4,18.8,4.9,26.5-1.4s15.5-17.8,21.6-27.5c13.2-21.1,23.5-44,32.8-67.2s18.2-48,29.1-71.1
	c3-6.1,5.6-12.9,11.7-16.7c4.3-2.7,10.1-3.2,14.4-0.1c9.7,6.8,5.3,25.9,3.1,35.5c-3.4,14.1-10,26.1-21.3,35.4
	c-11.4,9.3-24.3,14-36.3,5.7c-8.4-5.7-15.6-13-23.9-18.9c-8.3-5.8-20.6-9.7-32-11.2C98.3,132.9,95.2,143.3,94.7,143.2L94.7,143.2z"
	/>
<path class="st0" d="M152.9,161.6c-14.6-15.7-31.9-26.1-53.6-28.4c-1.6-0.2-4.6,7.1-5.2,8.3C86.5,158.1,77.4,177.2,63,189
	c-5.9,4.8-13.8,8.4-21.2,4.7c-4.8-2.3-7.9-7.1-9.5-12.1c-1.9-6.1-2.2-12.6-0.8-18.9c1.5-7.2,7.1-11.3,13.5-14.5
	c14.5-7.3,32.9-7.3,48.6-5c1.5,0.3,4.7-7.1,5.2-8.3c6-13,11.5-26.3,16.7-39.6c0.9-2.2-1.6,1.2-1.7,1.4c-1.5,2.2-2.8,4.5-3.9,7
	c-4.9,12.7-10.2,25.5-15.9,37.8l5.2-8.3c-15.7-2.3-33.7-2.3-48.3,4.8c-12,5.8-20.7,18.2-24.5,30.7c-3.2,10.4-2.7,25.1,6,32.7
	c12.9,11.3,28.4-4.4,35.9-14.3c12.3-16.1,21.9-34.1,30.4-52.3l-5.2,8.3c21.5,2.4,38.8,12.7,53.6,28.4
	C147,171.4,154.3,163,152.9,161.6L152.9,161.6z"/>
<path class="st0" d="M55.3,37c5.1-7.2,14.9-2.3,18.9,3.3c5.3,7.6,6.3,17.3,7.8,26.1c3,16.9,11.3,31.7,28,38.1
	c1.3,0.5,6.1-9.9,5.8-10c-7.9-3.1-14.7-8.4-19.6-15.3c-5.9-8.6-7.6-18.4-9.3-28.4c-1.5-8.5-3.5-19.2-10.8-24.7
	c-7.3-5.5-13.2-2.6-17.4,3.4c-1.5,2.2-3.4,4.6-4.1,7.1S54,39,55.3,37z"/>
<path class="st0" d="M172.9,33c-0.5,13.3-3.3,28.3-10.7,39.6S144,94,131.4,96.4c-3.2,0.5-6.5,0.5-9.7-0.2c-1.1-0.3-4.3-0.5-5.1-1.1
	h-0.9l0.7-1.8c0.3-1.2,0.8-2.3,1.3-3.5l8.9-22.7c5.8-14.5,11.3-30.3,19.5-43.9c3.9-6.1,11.3-11.3,18.7-8.5S173.1,26,172.9,33
	c0,0.7,2.5-3,2.7-3.3c0.2-0.3,3.2-4.3,3.3-6.3c0.1-9.7-3.5-22-15.8-19.1c-10.2,2.5-16.2,14.9-20.6,23.3
	c-12.8,24.4-21.7,50.5-32.3,76c-0.1,0.2-0.2,0.5-0.1,0.8c11.1,3.8,20.5,1.9,29.9-4.6c7.5-5.4,13.9-12.1,19-19.9
	c11.6-16.8,19.2-36.1,20-56.5c0-0.8-2.5,2.9-2.7,3.2S173,31,172.9,33z"/>
<path class="st0" d="M93.9,143.2c10.6,1.4,20.7,4,29.8,9.7c7.3,4.6,13.6,10.8,20.5,16.1c4.1,3.2,8,6.4,13.1,7.6
	c5.6,1.2,11.3,0.7,16.6-1.5c10.1-4.1,18.4-12.2,24.9-20.6c13.4-17.6,22.7-39.8,22.8-62.1c0-4.8-0.5-10.4-4-14.1
	c-3.5-3.8-9-4.5-13.6-2.8c-9.7,3.6-15.6,16.2-20,24.7c-11.4,22.2-20.2,45.6-29.2,68.9s-18.6,48-32.3,69.7
	C116,249,107,263.2,94,265.5c-10.1,1.8-17-6.1-19.4-15c-1.2-4.8-1.4-9.8-0.7-14.7c0.1-2.2,0.6-4.4,1.5-6.5c1.2-2.8,4-4.9,6.4-6.7
	c9.1-6.8,20.6-9.2,31.8-9.8c24-1.4,49.3,4.8,67.1,21.7c20.4,19.4,27.6,49.5,22.6,76.7c-0.1,0.6,2.5-2.9,2.7-3.2
	c1.1-1.9,2.8-4.1,3.2-6.3c4.3-23.9-0.5-50.4-15.8-69.7c-13.6-17.3-34.5-26.7-56-28.9c-21.5-2.3-45.3,0.2-58.5,18.1
	c-9.8,13-17.6,35.4-4.9,49.5c7.6,8.4,18.9,4.9,26.6-1.4s15.5-17.8,21.6-27.5c13.2-21.1,23.4-44,32.7-67.2s18.3-48,29.2-71.1
	c2.9-6.1,5.6-12.9,11.7-16.7c4.3-2.7,10.1-3.2,14.3-0.1c9.8,6.8,5.4,25.9,3.2,35.5c-3.4,14.1-10,26.1-21.3,35.4
	c-11.4,9.3-24.4,14-36.3,5.7c-8.4-5.7-15.6-13-24-18.9s-20.5-9.7-31.9-11.2C97.5,132.9,94.5,143.3,93.9,143.2L93.9,143.2z"/>
<path class="st0" d="M152.8,160.8c-14.7-15.7-32.5-25.3-54.1-27.6c-1.6-0.2-4.6,7.1-5.2,8.3c-7.8,16.5-16.8,35.7-31.1,47.4
	c-5.9,4.8-13.8,8.4-21.2,4.7c-4.8-2.3-7.9-7.1-9.5-12.1c-1.9-6.1-2.2-12.6-0.8-18.9c1.5-7.2,7.1-11.3,13.5-14.5
	c14.5-7.3,32.9-7.3,48.6-5c1.5,0.3,4.7-7.1,5.2-8.3c6-13,11.5-26.3,16.7-39.6c0.9-2.2-1.6,1.2-1.7,1.4c-1.5,2.2-2.8,4.5-3.9,7
	c-4.9,12.7-10.2,25.5-15.9,37.8l5.2-8.3c-15.7-2.3-33.7-2.3-48.3,4.8c-12,5.8-20.7,18.2-24.5,30.7c-3.2,10.4-2.7,25.1,6,32.7
	c12.8,11.3,28.4-4.4,35.9-14.3c12.3-16.1,21.9-34.1,30.4-52.3l-5.2,8.3c21.5,2.4,39.3,12,54.1,27.7
	C146.8,170.7,154,162.3,152.8,160.8z"/>
<path class="st0" d="M54.5,37c5.1-7.2,14.9-2.3,18.9,3.3c5.3,7.6,6.3,17.3,7.8,26.1c3,16.9,11.3,31.7,28,38.1c1.3,0.5,6-9.9,5.8-10
	c-7.9-3.1-14.7-8.4-19.6-15.3c-5.9-8.6-7.6-18.4-9.4-28.4c-1.4-8.5-3.4-19.2-10.7-24.7c-7.3-5.5-13.2-2.6-17.4,3.4
	c-1.5,2.2-3.4,4.6-4.1,7.1S53.3,39,54.5,37z"/>
<path class="st0" d="M172.1,33c-0.5,13.3-3.3,28.3-10.7,39.6C154,84,143.2,94,130.6,96.4c-3.2,0.5-6.5,0.5-9.7-0.2
	c-1.1-0.3-4.3-0.5-5.1-1.1h-0.9l0.6-1.8c0.3-1.1,1-2.4,1.4-3.5l8.9-22.7c5.8-14.5,11.3-30.3,19.5-43.9c3.9-6.1,11.3-11.3,18.7-8.5
	S172.3,26,172.1,33c0,0.7,2.5-3,2.7-3.3s3.2-4.3,3.3-6.3c0.1-9.7-3.5-22-15.8-19.1c-10.2,2.5-16.2,14.9-20.6,23.3
	c-12.8,24.4-21.7,50.5-32.3,76c-0.1,0.2-0.2,0.5-0.1,0.8c11.1,3.8,20.5,1.9,29.9-4.6c7.5-5.4,13.9-12.1,19-19.8
	c11.6-16.8,19.2-36.1,20-56.5c0-0.8-2.5,2.9-2.7,3.2C175.2,26.9,172.2,31,172.1,33z"/>
<path class="st0" d="M93.9,141.7c10.6,1.4,20.7,4,29.8,9.7c7.3,4.7,13.6,10.9,20.5,16.2c4.1,3.1,8,6.4,13.1,7.5
	c5.6,1.2,11.4,0.7,16.6-1.5c10.1-4.1,18.4-12.2,24.9-20.6c13.4-17.6,22.7-39.7,22.8-62.1c0-4.8-0.5-10.4-4-14.1
	c-3.5-3.8-9-4.5-13.6-2.8c-9.7,3.6-15.6,16.2-20,24.8c-11.4,22.1-20.2,45.6-29.2,68.9s-18.6,48-32.3,69.6
	C116,247.5,107,261.6,94,263.9c-10.1,1.8-17-6.1-19.4-15c-1.2-4.8-1.4-9.8-0.7-14.7c0.1-2.2,0.6-4.4,1.5-6.5c1.2-2.7,4-4.9,6.4-6.7
	c9.1-6.8,20.6-9.1,31.8-9.8c24-1.4,49.3,4.8,67.1,21.7c20.4,19.4,27.6,49.5,22.6,76.7c-0.1,0.6,2.5-2.8,2.7-3.2
	c1.1-1.9,2.8-4.1,3.2-6.3c4.3-23.9-0.5-50.3-15.8-69.7c-13.6-17.3-34.5-26.7-56-28.9s-45.3,0.2-58.5,18.1
	c-9.8,13.1-17.6,35.5-4.9,49.5c7.6,8.4,18.9,4.9,26.6-1.4s15.5-17.8,21.6-27.5c13.2-21.1,23.4-44,32.7-67.1s18.3-48.1,29.2-71.2
	c2.9-6.1,5.6-12.9,11.7-16.7c4.3-2.7,10.1-3.1,14.3-0.1c9.8,6.8,5.4,25.9,3.2,35.5c-3.4,14.1-10,26.2-21.3,35.4
	c-11.4,9.2-24.4,14-36.3,5.7c-8.4-5.7-15.6-13-24-18.9c-8.4-5.8-20.5-9.7-31.9-11.2C97.5,131.3,94.5,141.8,93.9,141.7L93.9,141.7z"
	/>
<path class="st0" d="M152.8,160.8c-14.7-15.7-32.3-26.8-54.1-29.1c-1.6-0.2-4.7,7.1-5.2,8.4c-7.8,16.4-16.8,35.6-31.1,47.3
	c-5.9,4.8-13.8,8.5-21.2,4.8c-4.8-2.4-7.9-7.2-9.5-12.2c-1.9-6.1-2.2-12.6-0.8-18.8c1.5-7.2,7.1-11.4,13.5-14.6
	c14.5-7.3,32.9-7.2,48.6-4.9c1.5,0.2,4.7-7.2,5.2-8.4c6-13,11.5-26.3,16.7-39.6c0.9-2.1-1.6,1.2-1.7,1.4c-1.5,2.2-2.8,4.5-3.9,7
	c-4.9,12.7-10.2,25.5-15.9,37.9l5.2-8.4c-15.7-2.3-33.7-2.2-48.3,4.8c-12,5.8-20.7,18.2-24.5,30.7c-3.2,10.4-2.7,25.1,6,32.8
	c12.8,11.3,28.4-4.5,35.9-14.4c12.3-16.1,21.9-34.1,30.4-52.3l-5.2,8.4c21.7,2.4,39.3,13.3,54.1,29.1
	C146.8,170.7,154.1,162.3,152.8,160.8z"/>
<path class="st0" d="M54.5,35.5c5.1-7.3,14.9-2.3,18.9,3.2c5.3,7.6,6.3,17.3,7.8,26.1c3,16.9,11.3,31.7,28,38.1
	c1.3,0.5,6-9.9,5.8-10c-7.9-3.1-14.7-8.4-19.6-15.3c-5.9-8.5-7.6-18.3-9.4-28.4c-1.4-8.5-3.4-19.2-10.7-24.7C68.1,19,62.1,22,58,28
	c-1.5,2.1-3.4,4.5-4.1,7S53.3,37.4,54.5,35.5z"/>
<path class="st0" d="M172.1,31.4c-0.5,13.4-3.3,28.3-10.7,39.6c-7.4,11.4-18.3,21.5-30.8,23.8c-3.2,0.6-6.5,0.5-9.7-0.2
	c-1.1-0.2-4.3-0.5-5.1-1h-0.9l0.6-1.7c0.4-1.2,0.9-2.4,1.4-3.6l8.9-22.7c5.8-14.5,11.3-30.3,19.5-43.8c3.9-6.2,11.3-11.4,18.7-8.6
	S172.3,24.6,172.1,31.4c0,0.8,2.5-2.9,2.7-3.1c0.2-0.2,3.2-4.4,3.3-6.4c0.1-9.7-3.5-22-15.8-19c-10.2,2.4-16.2,14.8-20.6,23.2
	c-12.8,24.4-21.7,50.5-32.3,76c-0.1,0.2-0.2,0.5-0.1,0.8c11.1,3.9,20.5,2,29.9-4.6c7.5-5.4,13.9-12.1,19-19.9
	c11.6-16.8,19.2-36,20-56.5c0-0.7-2.5,2.9-2.7,3.2C175.2,25.4,172.2,29.4,172.1,31.4z"/>
<path class="st0" d="M57,35.9c0,0-3.2,4.2-4.2,5.3c-1.1,1.1-0.2-6.6,5.1-13C59.2,26.6,57,35.9,57,35.9z"/>
<path class="st0" d="M203.9,306.2c0,0-1.1,6.1-1.3,8s3.3-2.7,5.5-7.2C209.2,305.1,203.9,306.2,203.9,306.2L203.9,306.2z"/>
<path class="st0" d="M35.2,156.9c-1.5,1.8-2.5,3.9-3.1,6.1c-1.2,4.2-1.2-4.6-1.2-4.6L35.2,156.9z"/>
<path class="st0" d="M78.5,227.5c-1.4,1.8-2.5,3.9-3.1,6.1c-1.1,4.2-1.2-4.6-1.2-4.6L78.5,227.5z"/>
<path class="st0" d="M170.9,3.4c0,0,5,2.5,6.8,7.5s-6.8,2.7-6.8,2.7V3.4z"/>
<path class="st0" d="M203.6,313.6c6-4,7.2-13.1,7.2-13.1l-3.7-1.4L203.6,313.6z"/>
</svg>
