<svg viewBox="0 0 91.08 103.9" xmlns="http://www.w3.org/2000/svg"><path d="m43.57 59.49c.58 6.17 2.39 11.16 11.08 11.73.61 0 1.12-.58 1 0-1.4 7.3-1.65 11.78-3.57 18.94a.86.86 0 0 1 -1.32.49 50.81 50.81 0 0 0 -6.18-4.09l-.23-.08c-13.46-2.92-6.92 32.62 8.11 9.64 0 0 .84.4 1.53.68 15.87 6.56 18.63 7.32 27.37 3.68 6.09-2.54 10.39-11.06 9.63-9.77-14.26 13.19-20.75 10.29-35.87 2.48a.85.85 0 0 1 -.41-1c2.76-8.47 2.83-13.49 4.66-22.17a.86.86 0 0 1 .42-.58c11.66-6.67 19.09-20.79 18.49-34.15.09-4.13-2.36-7-6.47-4.74l-.16.11c-10.3 8.42-12 24.62-15 37.15a1.39 1.39 0 0 1 -1.06.9 3.23 3.23 0 0 1 -.54 0c-6.25-.2-9.65-4.75-8.12-12m16.31-3.71c2.21-7.07 4.22-14.85 9.05-20.64a.87.87 0 0 1 1.47.22c4.34 10.62-3.59 26.12-12.07 33.65-1.12 1-2 1.51-1.43-.83.99-4.12 1.83-8.29 2.98-12.4zm-15.11 44.66c-6.24 7-11-.45-9.57-7.28a.89.89 0 0 1 .54-.62c3.6-1.49 6.75 2.24 9.9 4.42.94.63.53 1.95-.23 2.79q-.31.36-.64.69z"/><path d="m20.42 6h-.1z"/><path d="m20.65 6.05a.92.92 0 0 0 -.23-.05.46.46 0 0 1 .23.05z"/><path d="m52.47 32.87c2.6-7.53 7-14.75 6.52-23v-.03c.4-8.28-5.63-13.95-12.53-6.07a46.93 46.93 0 0 0 -7.89 14.17c-2.21 5.88-1.45 6.66-1.45-.35 0-6.47.64-14.26-6.33-9.42l-.09.07c-3.23 2.82-5.33 6.68-7.3 10.51s-1.5.4-1.42-.42c.44-4.26 1.18-9.19-1.32-12.27-2.08-1.17-4.83 1.19-5.21 1.57-3.52 3.65-4.58 9.08-8 12.77a.76.76 0 0 1 -.89.16c-4.37-2.09-3.37-9.29 0-11l.16-.07q.33-.09.66-.15c-13.82 1.66-5.75 19.91 4.24 9.17l.08-.09c2.08-2.85 3.34-6.21 5.21-9.18a.76.76 0 0 1 1.38.26c1.86 9.5-1.29 19.33-3.21 28.58-1.74 6.92-3.08 17.15-4.76 23.92-.17.72.16 1 .89.89 2.59-.51 2.31-.14 2.67-2.39a.34.34 0 0 0 0-.1c3.18-16.72 7.55-36.47 17.73-50.4a1 1 0 0 1 1.49-.09c3.45 4.28-4.55 43.88-6.36 52-.15.67.14 1.08.92.88s2-.54 2.25-.63.22-.8.25-.9c5-18.67 7.82-42.84 20-58.39a2 2 0 0 1 2.6-.53c4.24 2.56 2.71 13.71 1.6 17.66-3.36 10.21-22.87 53.51-.18 51.1h.06c1-.22 1.44-.69 2.4-1-.42.12-.46.45-1 .59.47-.13.44-.46.87-.57-17.61.21-6.68-27.73-4.04-37.25zm-45.89-23.36a13.72 13.72 0 0 1 -2.48.71 12.72 12.72 0 0 1 2.48-.71z"/><path d="m6.58 9.51a13.72 13.72 0 0 1 -2.48.71 12.72 12.72 0 0 1 2.48-.71z"/><path d="m57.07 70.32s0 0 0 0z"/></svg>