<svg viewBox="0 0 241.34 181.49" xmlns="http://www.w3.org/2000/svg"><path d="m215.51 160c-2.77 1-12.38 3.06-12.07-3.09-.86-8.16 9.5.78 12.07 3.09z" fill="#fff"/><path d="m159.36 156.06h-.05s.06 0 .05 0z"/><path d="m196.43 158.41a.78.78 0 0 0 -.2.14.61.61 0 0 1 .2-.14z"/><path d="m206 151.87c-.74 0-.17.54 0 0zm10.58-19.32.38.33a.61.61 0 0 0 -.38-.33z"/><path d="m233.92 152.93c-2.1 2.87-6 3.31-10.12 2 5.38-8.3-.55-16.83-7.22-22.35-2.89-2.53-3-2.85-4.51 1-1.06 6.69-3.44 13.29-7.72 18.6a22.46 22.46 0 0 1 -7.85 6.25 11.39 11.39 0 0 1 -3.33 1.13 9.26 9.26 0 0 1 -2.83 0s0 0 0 0a5.74 5.74 0 0 1 -.89-.21c11-6.32 11.49-31.71-5.31-23.07-5.61 5.58-9 18.33-1.25 23.5a31.11 31.11 0 0 1 -12.26-2 26.63 26.63 0 0 1 -4.79-2.36c8.89-4.46 11.85-25.31-1-25.29-8.62 1.45-12.7 19.28-5.93 24.71-6.44.77-11.74-5-10.86-3.8 4.78 6.36 9 8 14.29 6.33 7.07 3.86 15.81 5.61 23.74 3.81 6.53 1.76 13.76-.71 18.87-4.76 3 6.13 12 5.82 16.45 1.4 6 2.4 11.35-.54 13.77-6.3.89-2-.89.92-1.25 1.41zm-74.61 3.15s.06 0 .05 0zm5.9-4.62c-.08.09-.15.19-.22.28a8.25 8.25 0 0 1 -1.88 1.54c-5.42-5.39-1.87-14.57 1.39-20.27a.48.48 0 0 0 .09-.1 6 6 0 0 1 .43-.44 8.27 8.27 0 0 1 2 2.61 16.47 16.47 0 0 1 -1.81 16.38zm23.74-15h.05c.12 0 .14 0-.21.07zm-.57.05h.15a2.5 2.5 0 0 1 -.39-.07zm-4.76 23.15a1.45 1.45 0 0 1 -.29 0l.32-.05zm2.68-2a8.7 8.7 0 0 1 -2.07-2.68c-2.23-5.55-.08-12.4 3.1-17.19a8.63 8.63 0 0 1 1.16-1.1l.2-.12c7.48 4.93 3.12 16.32-2.39 21.11zm19.7-5.81c-.17.54-.74 0 0 0zm8 6a10.77 10.77 0 0 1 -6.73-3.64c.59-.64 1.19-1.27 1.74-2 4 .54 6.86 3.34 10.4 4.89a9.17 9.17 0 0 1 -5.41.79zm3.41-5.89c-1.55-.86-4-2.51-6.27-3.14a39.1 39.1 0 0 0 4.88-12c5.14 4.84 9.72 12 6.22 17.47a27.37 27.37 0 0 1 -4.83-2.29z"/><path d="m159.36 156.06h-.05s.06 0 .05 0z"/><path d="m167.86 153.77a16.1 16.1 0 0 1 -2 1.7l-.09-.05a18.25 18.25 0 0 0 2.09-1.65z"/><path d="m98.69 97.71a0 0 0 0 1 0 0zm141.85 62.08c-28 21.26-70 19.59-100.46 3.69a1.46 1.46 0 0 1 -.7-1.75c4.66-14.25 4.77-29.43 7.85-44a1.41 1.41 0 0 1 .7-1c19.63-11.24 32.13-35 31.11-57.47.16-6.95-4-11.71-10.87-8a1.27 1.27 0 0 0 -.27.18c-17.34 14.2-20.78 43.88-25.9 64.96a1.45 1.45 0 0 1 -1.22 1.09c-.26 0-.52.07-.7.08h-.21c-10.51-.33-13-13.64-13.65-22.18a1.39 1.39 0 0 1 .59-1.24c12.93-9.52 17.65-25.74 21.34-40.66a.44.44 0 0 0 0-.1c1.47-9 5.92-21 .51-29.19a4.56 4.56 0 0 0 -3.1-1.94c-8.33-1.26-14.56 8.61-17.24 15.53-7.41 17.87-8.8 37.72-8 56.88a1.44 1.44 0 0 1 -.66 1.28c-.58.36-1.18.69-1.77 1-.65.33-1.34.64-2 .94a1.07 1.07 0 0 1 -.15.07 18.65 18.65 0 0 1 -2.33.76c.17 0-.19.06-.22.06a0 0 0 0 0 0 0l-1 .18h.08-.31a15.62 15.62 0 0 1 -2.82 0c-.61-.07-1.08-.16-1.76-.3-1.94-.4-2.27-1-.57-2.53 7.9-6.9 12.78-26.55-.57-26.36a1.84 1.84 0 0 0 -.41.06c-9.41 2.3-14.49 16.22-10.75 25 .87 2-.16 2.54-1.77 1.94-4-1.53-6.84-4.52-6.23-3.48 4 6.75 8.48 7.93 12.5 6.82a1.55 1.55 0 0 1 .93 0c5.86 2.28 12.46 1 18.19-1.41a1.45 1.45 0 0 1 2 1.2c1 10.38 7.23 22 18.63 19.74a1.45 1.45 0 0 1 1.69 1.72c-2.35 12.25-2.79 24.83-6 36.89a1.46 1.46 0 0 1 -2.23.81c-3.43-2.36-6.73-5.1-10.4-6.88a1.77 1.77 0 0 0 -.37-.12c-22.66-4.92-11.65 54.88 13.64 16.21.42-.65 1.44.6 2.57 1.15 25.95 12.5 53.66 15 81.5 5.52 22.8-7.69 22.79-18.07 20.81-15.15zm-86.8-70.63c3.73-11.9 7.11-25 15.23-34.72a1.47 1.47 0 0 1 2.48.36c7.3 17.83-6 43.78-20.32 56.56-1 .94-3.68 3.39-2.4-1.38 1.85-6.9 3.08-13.98 5.01-20.82zm-52.68 4.84c-3.18-6.05-.69-14.45 3.07-20.15a1.47 1.47 0 0 1 2.37-.09c3.75 4.86 2.48 12.81-.59 17.76a19.3 19.3 0 0 1 -2.64 2.88 1.44 1.44 0 0 1 -2.21-.4zm25.07-19.13c1.47-16.57 3.28-35.79 14.58-48.87a1.47 1.47 0 0 1 2.38.19c7.2 12.44-5.72 48.18-14.63 61.87-2.32 3.58-2.8 4.83-2.62-.88.16-4.07.07-8.18.29-12.27zm2.18 96.13c-10.49 11.79-18.54-.75-16.1-12.24a1.48 1.48 0 0 1 .91-1.05c6.07-2.51 11.36 3.83 16.7 7.43 1.58 1.07.9 3.29-.39 4.7-.36.39-.74.77-1.12 1.16z"/><path d="m34.36 10h-.17a.43.43 0 0 1 .17 0z"/><path d="m34.74 10.18a1.37 1.37 0 0 0 -.38-.15.65.65 0 0 1 .38.15z"/><path d="m88.29 55.31c4.37-12.67 11.75-24.82 11-38.66v-.09c.63-13.94-9.51-23.47-21.12-10.22-5.94 7-10 15.25-13.27 23.85-3.71 9.88-2.45 11.2-2.45-.59 0-10.88 1.09-24-10.63-15.85l-.16.12c-5.43 4.74-9 11.24-12.28 17.69s-2.53.67-2.39-.73c.74-7.15 2-15.46-2.23-20.63 0-.07 0-.06-.06-.06-3.51-2-8.13 2-8.77 2.65-5.93 6.15-7.71 15.27-13.5 21.49a1.28 1.28 0 0 1 -1.49.26c-7.36-3.54-5.68-15.62.06-18.48a1.48 1.48 0 0 1 .27-.1 9.34 9.34 0 0 1 1.11-.26c-23.16 2.76-9.59 33.51 7.22 15.45a1.83 1.83 0 0 0 .13-.16c3.5-4.79 5.63-10.44 8.78-15.45a1.28 1.28 0 0 1 2.32.45c3.13 15.94-2.1 32.51-5.4 48.09-2.94 11.64-5.27 23.79-8 35.13-.3 1.23.27 1.74 1.49 1.5 4.37-.84 3.89-.23 4.5-4 0 0 0-.1 0-.16 5.33-28.08 12.68-56.27 29.81-79.67a1.6 1.6 0 0 1 2.5-.16c5.77 7.18-7.73 68.78-10.73 82.36-.25 1.13.24 1.82 1.55 1.48 1.5-.38 3.33-.9 3.79-1 .24 0 .38-1.36.41-1.51 8.4-31.47 13.16-67.05 33.62-93.25a3.38 3.38 0 0 1 4.37-.89c7.26 4.34 4.59 23.09 2.72 29.71-5.57 17.22-38.47 85-.3 81a.1.1 0 0 0 .09 0 .1.1 0 0 0 .09 0c1.63-.37 3.28-.83 4.89-1.29-.72.2-1.61.41-2.52.64l2.29-.61c-29.86 2.14-12.77-42.36-7.71-58.05zm-77.22-39.31a24.1 24.1 0 0 1 -4.17 1.2c-.99.11 3.01-.96 4.17-1.2z"/><path d="m11.07 16a24.1 24.1 0 0 1 -4.17 1.2c-.99.11 3.01-.96 4.17-1.2z"/><path d="m98.71 97.71a0 0 0 0 0 0 0z"/><path d="m112.21 99h-.21a.77.77 0 0 1 .21 0z"/><path d="m113.14 98.81a0 0 0 0 0 0 0c.29-.09.31-.05 0 0z"/><path d="m115.81 97.94a1.07 1.07 0 0 1 -.15.07z"/><path d="m98.69 97.71a0 0 0 0 1 0 0zm0 0a0 0 0 0 1 0 0z"/><path d="m98.69 97.71a0 0 0 0 1 0 0zm0 0a0 0 0 0 1 0 0z"/><path d="m98.69 97.71a0 0 0 0 1 0 0zm0 0a0 0 0 0 1 0 0z"/><path d="m98.69 97.71a0 0 0 0 1 0 0zm0 0a0 0 0 0 1 0 0z"/><path d="m98.69 97.71a0 0 0 0 1 0 0zm0 0a0 0 0 0 1 0 0z"/><path d="m98.69 97.71a0 0 0 0 1 0 0zm0 0a0 0 0 0 1 0 0z"/><path d="m98.69 97.71a0 0 0 0 1 0 0zm0 0a0 0 0 0 1 0 0z"/><path d="m98.69 97.71a0 0 0 0 1 0 0zm0 0a0 0 0 0 1 0 0z"/><path d="m98.69 97.71a0 0 0 0 1 0 0zm0 0a0 0 0 0 1 0 0z"/><path d="m98.69 97.71a0 0 0 0 1 0 0zm0 0a0 0 0 0 1 0 0z"/><path d="m98.71 97.71a0 0 0 0 0 0 0z"/><path d="m115.11 156.87a5.7 5.7 0 0 0 -3 2.33c.08-.39.17-.77.24-1.15a23.3 23.3 0 0 1 2.76-1.18z"/><path d="m113.38 157.75a3.19 3.19 0 0 0 -1.35 2.14c0-.63.24-1.23.34-1.84a3.56 3.56 0 0 1 1.01-.3z"/></svg>