<svg id="Layer_1" data-name="Layer 1" xmlns="http://www.w3.org/2000/svg" viewBox="0 0 153.25 176.51"><path d="M73.31,95c1,10.39,4,18.78,18.64,19.75,1,.06,1.89.7,1.69,1.71-2.35,12.25-2.79,24.84-6,36.9a1.47,1.47,0,0,1-2.24.81c-3.43-2.36-6.73-5.1-10.39-6.88a2.43,2.43,0,0,0-.38-.13C52,142.29,63,202.09,88.27,163.42c0,0,1.42.67,2.58,1.15,26.7,11,31.34,12.31,46.05,6.18,10.24-4.27,17.49-18.61,16.21-16.43-24,22.19-34.93,17.26-60.36,4.17a1.43,1.43,0,0,1-.7-1.74c4.65-14.25,4.76-29.43,7.84-44a1.45,1.45,0,0,1,.71-1c19.62-11.24,32.12-35,31.11-57.47.15-7-4-11.71-10.87-8a1.67,1.67,0,0,0-.28.18C103.23,60.66,100.36,87.92,95.25,109a2.34,2.34,0,0,1-1.78,1.51,3.69,3.69,0,0,1-.91.08c-10.52-.33-16.24-8-13.65-20.17m-39.21-2,66.71-4.22c3.73-11.9,7.11-25,15.22-34.72a1.47,1.47,0,0,1,2.49.36c7.29,17.82-6.06,43.9-20.32,56.56-1.88,1.66-3.35,2.55-2.4-1.38C103.06,98.05,104.48,91.05,106.41,84.18ZM81,166c-10.5,11.79-18.54-.75-16.1-12.24a1.46,1.46,0,0,1,.91-1.05c6.07-2.51,11.36,3.83,16.69,7.43,1.58,1.07.9,3.29-.39,4.7C81.73,165.24,81.36,165.63,81,166Z"/><path d="M34.36,10l-.17,0A.43.43,0,0,1,34.36,10Z"/><path d="M34.74,10.18a1.37,1.37,0,0,0-.38-.15A.65.65,0,0,1,34.74,10.18Z"/><path d="M88.29,55.31c4.37-12.67,11.75-24.82,11-38.66v-.09C99.92,2.62,89.78-6.91,78.17,6.34h0c-5.94,7-10,15.25-13.27,23.85-3.71,9.88-2.45,11.2-2.45-.59,0-10.88,1.09-24-10.63-15.85l-.16.12c-5.43,4.74-9,11.24-12.28,17.69s-2.53.67-2.39-.73c.74-7.15,2-15.46-2.23-20.63,0-.07,0-.06-.06-.06-3.51-2-8.13,2-8.77,2.65h0C20,18.94,18.22,28.06,12.43,34.28a1.28,1.28,0,0,1-1.49.26C3.58,31,5.26,18.92,11,16.06a1.48,1.48,0,0,1,.27-.1,9.34,9.34,0,0,1,1.11-.26c-23.16,2.76-9.59,33.51,7.22,15.45a1.83,1.83,0,0,0,.13-.16c3.5-4.79,5.63-10.44,8.78-15.45a1.28,1.28,0,0,1,2.32.45c3.13,15.94-2.1,32.51-5.4,48.09-2.94,11.64-5.27,23.79-8,35.13-.3,1.23.27,1.74,1.49,1.5,4.37-.84,3.89-.23,4.5-4,0,0,0-.1,0-.16,5.33-28.08,12.68-56.27,29.81-79.67a1.6,1.6,0,0,1,2.5-.16C61.5,23.9,48,85.5,45,99.08c-.25,1.13.24,1.82,1.55,1.48,1.5-.38,3.33-.9,3.79-1,.24,0,.38-1.36.41-1.51C59.15,66.58,63.91,31,84.37,4.8a3.38,3.38,0,0,1,4.37-.89C96,8.25,93.33,27,91.46,33.62c-5.57,17.22-38.47,85-.3,81a.1.1,0,0,0,.09,0,.1.1,0,0,0,.09,0c1.63-.37,2.44-1.17,4-1.63-.72.2-.77.75-1.68,1,.78-.21.73-.76,1.45-1C65.46,113.28,83.84,71.32,88.29,55.31ZM11.07,16A24.1,24.1,0,0,1,6.9,17.2C5.91,17.31,9.91,16.24,11.07,16Z"/><path d="M11.07,16A24.1,24.1,0,0,1,6.9,17.2C5.91,17.31,9.91,16.24,11.07,16Z"/><path d="M96,113.27h0Z"/></svg>