<svg viewBox="0 0 143.43 107.86" xmlns="http://www.w3.org/2000/svg"><path d="m128.08 95.11c-1.65.57-7.36 1.82-7.17-1.83-.51-4.88 5.64.44 7.17 1.83z" fill="#fff"/><path d="m94.71 92.75s0 0 0 0z"/><path d="m112.34 81.08a0 0 0 0 0 0 0z"/><path d="m116.74 94.14-.12.09a.61.61 0 0 1 .12-.09z"/><path d="m122.43 90.26c-.44 0-.11.32 0 0zm6.28-11.48.23.19a.33.33 0 0 0 -.23-.19z"/><path d="m139 90.88c-1.25 1.71-3.56 2-6 1.18 3.2-4.94-.32-10-4.29-13.28-1.72-1.51-1.81-1.7-2.68.58a23.21 23.21 0 0 1 -4.59 11 13.23 13.23 0 0 1 -4.66 3.71 6.81 6.81 0 0 1 -2 .67 5.26 5.26 0 0 1 -1.68 0s0 0 0 0a3.13 3.13 0 0 1 -.53-.12c6.55-3.76 6.83-18.85-3.16-13.72-3.33 3.32-5.33 10.9-.74 14a18.54 18.54 0 0 1 -7.29-1.17 15.94 15.94 0 0 1 -2.84-1.4c5.28-2.65 7-15-.6-15-5.14.87-7.56 11.47-3.54 14.67-3.83.46-7-3-6.46-2.26 2.85 3.78 5.37 4.76 8.5 3.77a20.64 20.64 0 0 0 14.1 2.26c3.89 1 8.19-.42 11.22-2.83 1.78 3.64 7.13 3.46 9.78.83 3.57 1.43 6.74-.32 8.18-3.74.57-1.17-.49.57-.72.85zm-44.32 1.88s0 0 0 0zm3.51-2.76a1.09 1.09 0 0 1 -.13.17 4.77 4.77 0 0 1 -1.11.91c-3.22-3.2-1.11-8.66.82-12s0 0 0-.06a3.19 3.19 0 0 1 .26-.26 5 5 0 0 1 1.2 1.55 9.75 9.75 0 0 1 -1.05 9.69zm14.11-8.92h.06c.07 0 .08 0-.13 0 .01.03.04.03.06.01zm-.34 0h.09a.91.91 0 0 1 -.23 0zm-2.83 13.76h-.17.19zm1.6-1.17a5.15 5.15 0 0 1 -1.23-1.59c-1.33-3.3 0-7.37 1.84-10.22a4.78 4.78 0 0 1 .69-.66l.12-.07c4.44 2.97 1.85 9.73-1.43 12.58zm11.71-3.45c-.11.32-.44 0 0 0zm4.75 3.58a6.4 6.4 0 0 1 -4-2.17c.36-.38.71-.75 1-1.16 2.35.32 4.08 2 6.19 2.9a5.49 5.49 0 0 1 -3.2.47zm2-3.5a18 18 0 0 0 -3.73-1.87 23.24 23.24 0 0 0 2.9-7.14c3.06 2.88 5.78 7.13 3.7 10.38a16.49 16.49 0 0 1 -2.85-1.33z"/><path d="m94.71 92.75s0 0 0 0z"/><path d="m99.76 91.39a10 10 0 0 1 -1.19 1 11.6 11.6 0 0 0 1.19-1z"/><path d="m143 95c-16.63 12.64-41.63 11.64-59.71 2.19a.86.86 0 0 1 -.41-1c2.76-8.47 2.58-16.29 4.41-25a.89.89 0 0 1 .43-.57c11.66-6.68 19.33-22 18.73-35.36.09-4.13-2.36-7-6.47-4.74a.76.76 0 0 0 -.16.11c-10.34 8.37-12.55 26.1-15.58 38.63-.09.34-9.47.52-9.22-12.56a1.1 1.1 0 0 1 .35-.74c18.19-18.19 16.3-41.37 11.16-42.73-4.87-1.29-8.66 5.12-10.27 9.23-4.4 10.62-5.23 22.41-4.77 33.8a.83.83 0 0 1 -.39.76c-.34.22-.7.42-1 .62l-1.2.56h-.09a13.25 13.25 0 0 1 -1.39.45c.1 0-.11 0-.13 0l-.61.1h-.19a9.43 9.43 0 0 1 -1.68 0c-.36 0-.64-.1-1-.18-1.15-.24-1.34-.62-.33-1.51 4.69-4.09 7.59-15.77-.34-15.66h-.24c-5.6 1.37-8.61 9.64-6.39 14.86.51 1.21-.1 1.51-1.06 1.15-2.4-.9-4.06-2.68-3.7-2.06 2.35 4 5 4.71 7.43 4a.86.86 0 0 1 .55 0c3.49 1.35 7.41.56 10.82-.85a.87.87 0 0 1 1.18.72c.58 3.7 4 11.73 10.5 11.73 1.6 0 1.7.42 1.58 1-1.4 7.28-1.66 14.76-3.56 21.92a.87.87 0 0 1 -1.33.49 50.81 50.81 0 0 0 -6.18-4.09l-.23-.08c-13.46-2.91-6.92 32.62 8.11 9.64.25-.38.86.36 1.53.68 15.42 7.43 31.89 8.95 48.44 3.29 13.54-4.4 13.54-10.57 12.41-8.8zm-42.58-62.65a1 1 0 0 1 1.47.22c4.47 7.69-5.38 28.74-14.31 36.24-1.45 1.19 4.18-23.81 12.84-36.46zm-40.36 23.54c-1.89-3.6-.41-8.59 1.82-12a.87.87 0 0 1 1.41-.06c2.23 2.89 1.48 7.62-.35 10.55a11.65 11.65 0 0 1 -1.57 1.72.87.87 0 0 1 -1.31-.21zm14.94-11.37c.88-9.87 2-21.29 8.66-29.05a.88.88 0 0 1 1.42.11c4.28 7.4-3.4 28.63-8.69 36.77-1.39 2.13-1.67 2.87-1.56-.52.03-2.44 0-4.89.17-7.31zm1.3 57.1c-6.24 7-11-.44-9.57-7.27a.88.88 0 0 1 .54-.63c3.6-1.49 6.75 2.28 9.92 4.42.94.64.53 2-.23 2.79q-.37.36-.7.69z"/><path d="m20.42 6h-.1z"/><path d="m20.65 6.05a.92.92 0 0 0 -.23-.05.46.46 0 0 1 .23.05z"/><path d="m52.47 32.87c2.6-7.53 7-14.75 6.52-23v-.03c.4-8.28-5.63-13.95-12.53-6.07a46.93 46.93 0 0 0 -7.89 14.17c-2.21 5.88-1.45 6.66-1.45-.35 0-6.47.64-14.26-6.33-9.42l-.09.07c-3.23 2.82-5.33 6.68-7.3 10.51s-1.5.4-1.42-.42c.44-4.26 1.18-9.19-1.32-12.27-2.08-1.17-4.83 1.19-5.21 1.57-3.52 3.65-4.58 9.08-8 12.77a.76.76 0 0 1 -.89.16c-4.37-2.09-3.37-9.29 0-11l.16-.07q.33-.09.66-.15c-13.82 1.66-5.75 19.91 4.24 9.17l.08-.09c2.08-2.85 3.34-6.21 5.21-9.18a.76.76 0 0 1 1.38.26c1.86 9.5-1.29 19.33-3.21 28.58-1.74 6.92-3.08 14.14-4.76 20.92-.17.73.16 1 .89.89 2.59-.5 2.31-.14 2.67-2.39a.28.28 0 0 0 0-.09c3.18-16.73 7.55-33.48 17.73-47.41a1 1 0 0 1 1.49-.09c3.45 4.28-4.55 40.88-6.36 49-.15.67.14 1.07.92.87s2-.53 2.25-.62.22-.81.25-.9c5-18.67 7.82-39.84 20-55.39a2 2 0 0 1 2.6-.53c4.24 2.56 2.71 13.71 1.6 17.66-3.36 10.21-22.87 50.51-.18 48.1a.06.06 0 0 0 0 0 .07.07 0 0 0 .06 0c1-.22 1.94-.49 2.9-.76l-1.5.38 1.36-.37c-17.69 1.29-7.54-25.17-4.53-34.48zm-45.89-23.36a13.72 13.72 0 0 1 -2.48.71 12.72 12.72 0 0 1 2.48-.71z"/><path d="m6.58 9.51a13.72 13.72 0 0 1 -2.48.71 12.72 12.72 0 0 1 2.48-.71z"/><path d="m66.69 58.82h-.16z"/><path d="m67.24 58.72c.17-.05.19-.03 0 0z"/><path d="m68.83 58.21h-.09z"/><path d="m68.41 93.23a3.41 3.41 0 0 0 -1.77 1.38c0-.23.1-.45.14-.68a12.5 12.5 0 0 1 1.63-.7z"/><path d="m67.38 93.75a1.92 1.92 0 0 0 -.8 1.27c0-.37.14-.73.2-1.09a2.08 2.08 0 0 1 .6-.18z"/></svg>