<svg viewBox="0 0 151.46 119.81" xmlns="http://www.w3.org/2000/svg"><path d="m136.1 107.06c-1.64.56-7.35 1.81-7.17-1.84-.51-4.87 5.65.44 7.17 1.84z" fill="#fff"/><path d="m106 104a0 0 0 0 1 0 0z"/><path d="m124.76 106.09a.36.36 0 0 0 -.12.08.3.3 0 0 1 .12-.08z"/><path d="m130.45 102.2c-.44 0-.1.32 0 0zm6.29-11.48.22.19a.36.36 0 0 0 -.22-.19z"/><path d="m147.05 102.83c-1.25 1.71-3.57 2-6 1.17 3.2-4.93-.32-10-4.29-13.28-1.72-1.5-1.8-1.69-2.68.58a23.29 23.29 0 0 1 -4.59 11.06 13.4 13.4 0 0 1 -4.67 3.72 7 7 0 0 1 -2 .67 5.57 5.57 0 0 1 -1.68 0s0 0 0 0a3.37 3.37 0 0 1 -.53-.12c6.55-3.76 6.83-18.85-3.15-13.71-3.34 3.32-5.34 10.89-.75 14a18.47 18.47 0 0 1 -7.28-1.17 16 16 0 0 1 -2.85-1.4c5.29-2.65 7-15-.59-15-5.12.86-7.55 11.46-3.53 14.69-3.83.45-7-3-6.45-2.26 2.84 3.78 5.36 4.75 8.49 3.76a20.67 20.67 0 0 0 14.11 2.26c3.88 1 8.18-.42 11.21-2.83 1.78 3.65 7.13 3.46 9.78.84 3.57 1.42 6.75-.33 8.19-3.75.53-1.26-.53.48-.74.77zm-41.05 1.17a0 0 0 0 1 0 0zm.19-2a1.83 1.83 0 0 0 -.13.16 5 5 0 0 1 -1.06.84c-3.22-3.2-1.11-8.65.83-12v-.06l.26-.26a4.9 4.9 0 0 1 1.19 1.55 9.77 9.77 0 0 1 -1.07 9.77zm14.13-9h.05c.07 0 .08 0-.13 0zm-.34 0h.08-.23zm-2.83 13.75h-.17.19zm1.59-1.17a5.15 5.15 0 0 1 -1.23-1.59c-1.32-3.3 0-7.37 1.84-10.22a5.27 5.27 0 0 1 .69-.65l.12-.08c4.45 2.96 1.84 9.76-1.42 12.61zm11.71-3.45c-.1.32-.44 0 0 0zm4.75 3.58a6.43 6.43 0 0 1 -4-2.16c.36-.38.71-.76 1-1.17 2.35.32 4.08 2 6.18 2.91a5.49 5.49 0 0 1 -3.18.49zm2-3.5a19 19 0 0 0 -3.72-1.87 23.24 23.24 0 0 0 2.9-7.14c3.05 2.88 5.77 7.13 3.69 10.38a15.79 15.79 0 0 1 -2.84-1.3z"/><path d="m106 104a0 0 0 0 1 0 0z"/><path d="m107.78 103.33a9.16 9.16 0 0 1 -1.19 1 11.6 11.6 0 0 0 1.19-1z"/><path d="m150.98 106.9c-16.62 12.63-41.63 11.64-59.71 2.19a.84.84 0 0 1 -.41-1c3.38-7.48 2.21-15 4.42-25a.76.76 0 0 1 .42-.57c18-6.57 25.55-50.32 12.19-40.18-9.66 7.33-12.6 26.33-15.63 38.86-.08.35-9.47.52-9.21-12.56a1 1 0 0 1 .35-.74c17.73-15.52 19.84-56 5.6-39.91-7.63 8.61-10 28.83-9.48 40.22a.87.87 0 0 1 -.4.76c-.34.21-.7.41-1 .61-.39.2-.8.39-1.19.56s0 0-.09 0a11.12 11.12 0 0 1 -1.38.45c.1 0-.12 0-.13 0l-.61.11h-.18a8.48 8.48 0 0 1 -1.67 0c-.36 0-.65-.1-1-.18-1.15-.24-1.35-.62-.34-1.5 4.7-4.1 7.59-15.78-.34-15.67a1 1 0 0 0 -.24 0c-5.6 1.37-8.61 9.64-6.39 14.86.52 1.22-.1 1.52-1 1.16-2.4-.91-4.06-2.69-3.7-2.07 2.34 4 5 4.71 7.43 4a.87.87 0 0 1 .55 0c3.48 1.35 7.4.56 10.81-.84a.86.86 0 0 1 1.18.71c.58 3.71 4 11.73 10.51 11.73 1.6 0 1.58.47 1.47 1.08-1.51 7.5-1.87 15.02-3.81 22.14a.68.68 0 0 1 -1.13.43c-2-1.4-5.11-3.94-6.36-4.2-13.48-2.86-7 32.66 8.07 9.67.25-.38.85.36 1.53.69 15.42 7.43 31.88 8.94 48.43 3.28 13.62-4.65 13.62-10.82 12.46-9.08zm-42.54-62.6a1 1 0 0 1 1.48.21c5.4 8.24-5.38 30.51-14.31 36.24-1.61 1.03 7.59-33.11 12.83-36.45zm-40.35 23.53c-1.89-3.6-.41-8.58 1.82-12a.88.88 0 0 1 1.41-.06c2.23 2.89 1.47 7.62-.35 10.56a11 11 0 0 1 -1.57 1.71.85.85 0 0 1 -1.31-.21zm14.91-11.37c.87-9.87 2.81-21.42 9.53-29.18a1 1 0 0 1 1.54.25c4.28 7.39-4.4 28.63-9.69 36.76-1.38 2.13-1.67 2.88-1.56-.52.07-2.44.03-4.89.18-7.31zm1.29 57.1c-6.24 7-11-.44-9.57-7.27a.88.88 0 0 1 .54-.63c3.61-1.49 6.75 2.28 9.92 4.42.94.64.54 2-.23 2.79q-.32.36-.67.69z"/><path d="m24 7h-.12z"/><path d="m24.22 7.1a.85.85 0 0 0 -.22-.1.42.42 0 0 1 .22.1z"/><path d="m61.56 38.56c3-8.83 8.18-17.3 7.64-26.95v-.06c.47-9.72-6.61-16.37-14.7-7.13a55.4 55.4 0 0 0 -9.26 16.63c-2.58 6.89-1.7 7.81-1.7-.41 0-7.59.76-16.73-7.42-11l-.1.08c-3.79 3.28-6.25 7.79-8.56 12.28s-1.77.47-1.67-.5c.51-5 1.38-10.78-1.55-14.39 0-.05 0 0 0 0-2.44-1.37-5.66 1.4-6.11 1.85-4.13 4.24-5.43 10.61-9.46 14.94a.9.9 0 0 1 -1 .18c-5.13-2.44-3.95-10.89 0-12.88l.19-.08a6.6 6.6 0 0 1 .74-.12c-16.15 1.92-6.69 23.36 5 10.76l.09-.11c2.44-3.34 3.93-7.27 6.12-10.76a.89.89 0 0 1 1.62.31c2.21 11.06-1.43 22.61-3.73 33.48-2 8.11-3.68 16.58-5.59 24.49-.21.85.19 1.21 1 1 3-.59 2.52-.28 3.13-2.81 0 0 6.59-40.12 20.8-55.65a1.15 1.15 0 0 1 1.75-.11c4.05 5-4.36 48-6.48 57.43-.18.79.16 1.27 1.08 1a7.46 7.46 0 0 0 1.66-.73c.17 0 .26-.95.29-1.06 5.86-21.9 9.46-46.68 23.73-64.92a2.36 2.36 0 0 1 3-.63c5 3 3.21 16.11 1.9 20.72-3.89 12-27.1 59.22-.49 56.39a289002652085.47 289002652085.47 0 0 0 .12 0c1.14-.27 2.29-.58 3.41-.9-.5.14-1.12.28-1.76.44l1.6-.42c-20.74 1.6-8.85-29.44-5.29-40.36zm-53.84-27.41a16.06 16.06 0 0 1 -2.91.85c-.69.07 2.1-.68 2.91-.85z"/><path d="m7.72 11.15a16.06 16.06 0 0 1 -2.91.85c-.69.07 2.1-.68 2.91-.85z"/><path d="m67 79s0 0 0 0z"/><path d="m75.27 70.67c.17-.05.18-.03 0 0z"/><path d="m76.85 70.15s0 0-.09 0z"/><path d="m76.44 105.17a3.41 3.41 0 0 0 -1.78 1.39c0-.24.11-.46.15-.69a13.32 13.32 0 0 1 1.63-.7z"/><path d="m75.41 105.69a1.9 1.9 0 0 0 -.8 1.28 9.71 9.71 0 0 1 .2-1.1 2.45 2.45 0 0 1 .6-.18z"/></svg>